####
#
# OBJ File Generated by Meshlab
#
####
# Object LEG1.obj
#
# Vertices: 146
# Faces: 282
#
####
vn 2.998793 0.223548 -3.125604
v 0.125000 0.175000 -0.075000
vn -2.998793 0.223548 -3.125605
v -0.125000 0.175000 -0.075000
vn -2.855993 0.876081 -2.983654
v -0.125000 0.196130 -0.071962
vn 2.855993 0.876081 -2.983654
v 0.125000 0.196130 -0.071962
vn -2.855994 1.681186 -2.615975
v -0.125000 0.215548 -0.063094
vn 2.855994 1.681186 -2.615975
v 0.125000 0.215548 -0.063094
vn -2.855994 2.350091 -2.036366
v -0.125000 0.231681 -0.049115
vn 2.855993 2.350091 -2.036366
v 0.125000 0.231681 -0.049115
vn -2.855993 2.828606 -1.291782
v -0.125000 0.243222 -0.031156
vn 2.855993 2.828606 -1.291782
v 0.125000 0.243222 -0.031156
vn -2.855994 3.077964 -0.442545
v -0.125000 0.249237 -0.010674
vn 2.855993 3.077964 -0.442545
v 0.125000 0.249237 -0.010674
vn -2.855993 3.077964 0.442545
v -0.125000 0.249237 0.010674
vn 2.855993 3.077964 0.442545
v 0.125000 0.249237 0.010674
vn -2.855993 2.828606 1.291782
v -0.125000 0.243222 0.031156
vn 2.855993 2.828606 1.291782
v 0.125000 0.243222 0.031156
vn -2.855993 2.350091 2.036366
v -0.125000 0.231681 0.049115
vn 2.855993 2.350091 2.036366
v 0.125000 0.231681 0.049115
vn -2.855994 1.681186 2.615975
v -0.125000 0.215548 0.063094
vn 2.855994 1.681186 2.615975
v 0.125000 0.215548 0.063094
vn -2.855993 0.876081 2.983654
v -0.125000 0.196130 0.071962
vn 2.855993 0.876081 2.983654
v 0.125000 0.196130 0.071962
vn -2.998793 0.223548 3.125604
v -0.125000 0.175000 0.075000
vn 2.998793 0.223548 3.125604
v 0.125000 0.175000 0.075000
vn 1.570796 4.712388 1.570796
v 0.125000 0.100000 0.075000
vn -1.570796 4.712389 1.570796
v -0.125000 0.100000 0.075000
vn 1.570796 4.712389 -1.570796
v 0.125000 0.100000 -0.075000
vn -1.570796 4.712389 -1.570796
v -0.125000 0.100000 -0.075000
vn -2.106391 5.276369 0.923949
v -0.210628 0.100000 0.092390
vn -1.925586 5.276369 1.258048
v -0.192548 0.100000 0.125798
vn -1.094738 5.276369 -2.022897
v -0.109468 0.100000 -0.202279
vn -1.412765 5.276369 -1.815120
v -0.141269 0.100000 -0.181502
vn 2.106391 5.276369 -0.923949
v 0.210628 0.100000 -0.092390
vn 1.925586 5.276369 -1.258048
v 0.192548 0.100000 -0.125798
vn -2.292267 5.276369 0.189942
v -0.229214 0.100000 0.018993
vn -2.229740 5.276369 0.564647
v -0.222962 0.100000 0.056462
vn -1.692255 5.276369 -1.557831
v -0.169216 0.100000 -0.155775
vn -1.925586 5.276369 -1.258048
v -0.192548 0.100000 -0.125798
vn -2.106391 5.276369 -0.923949
v -0.210628 0.100000 -0.092390
vn -2.229740 5.276369 -0.564647
v -0.222962 0.100000 -0.056462
vn -2.292267 5.276369 -0.189942
v -0.229214 0.100000 -0.018993
vn 2.229740 5.276369 0.564647
v 0.222962 0.100000 0.056462
vn 2.106391 5.276369 0.923949
v 0.210628 0.100000 0.092390
vn 1.925586 5.276369 1.258048
v 0.192548 0.100000 0.125798
vn 1.692255 5.276369 -1.557831
v 0.169216 0.100000 -0.155775
vn 1.412765 5.276369 -1.815120
v 0.141269 0.100000 -0.181502
vn 1.094738 5.276369 -2.022898
v 0.109468 0.100000 -0.202279
vn 0.746849 5.276368 -2.175496
v 0.074681 0.100000 -0.217538
vn 0.378588 5.276369 -2.268752
v 0.037857 0.100000 -0.226863
vn 0.000000 5.276369 -2.300123
v 0.000000 0.100000 -0.230000
vn 2.292267 5.276369 0.189942
v 0.229214 0.100000 0.018993
vn 2.292267 5.276369 -0.189942
v 0.229214 0.100000 -0.018993
vn 2.229740 5.276369 -0.564647
v 0.222962 0.100000 -0.056462
vn -1.094738 5.276369 2.022898
v -0.109468 0.100000 0.202279
vn -1.412765 5.276369 1.815120
v -0.141269 0.100000 0.181502
vn -1.692255 5.276369 1.557831
v -0.169216 0.100000 0.155775
vn -0.746849 5.276368 2.175496
v -0.074681 0.100000 0.217538
vn -0.378588 5.276369 2.268752
v -0.037857 0.100000 0.226863
vn 0.000000 2.976246 0.000000
v 0.000000 0.100000 0.230000
vn -0.378588 5.276369 -2.268752
v -0.037857 0.100000 -0.226863
vn -0.746849 5.276369 -2.175496
v -0.074681 0.100000 -0.217538
vn 0.378588 5.276369 2.268752
v 0.037857 0.100000 0.226863
vn 0.746849 5.276369 2.175496
v 0.074681 0.100000 0.217538
vn 1.094738 5.276369 2.022897
v 0.109468 0.100000 0.202279
vn 1.412765 5.276369 1.815120
v 0.141269 0.100000 0.181502
vn 1.692255 5.276369 1.557831
v 0.169216 0.100000 0.155775
vn -0.000000 0.000000 3.130862
v 0.000000 0.080000 0.250000
vn 0.515323 -2.976245 3.088161
v 0.041149 0.000000 0.246590
vn 0.866758 2.135153 5.194193
v 0.041149 0.080000 0.246590
vn 1.016590 -2.976246 2.961224
v 0.081175 0.000000 0.236454
vn 1.709873 2.135153 4.980688
v 0.081175 0.080000 0.236454
vn 1.490126 -2.976246 2.753511
v 0.118987 0.000000 0.219868
vn 2.506346 2.135153 4.631322
v 0.118987 0.080000 0.219868
vn 1.923015 -2.976246 2.470690
v 0.153553 0.000000 0.197285
vn 3.234454 2.135153 4.155626
v 0.153553 0.080000 0.197285
vn 2.303451 -2.976246 2.120476
v 0.183931 0.000000 0.169320
vn 3.874333 2.135154 3.566575
v 0.183931 0.080000 0.169320
vn 2.621053 -2.976246 1.712420
v 0.209292 0.000000 0.136737
vn 4.408532 2.135153 2.880238
v 0.209292 0.080000 0.136737
vn 2.867160 -2.976246 1.257653
v 0.228943 0.000000 0.100424
vn 4.822476 2.135153 2.115335
v 0.228943 0.080000 0.100424
vn 3.035059 -2.976245 0.768581
v 0.242350 0.000000 0.061371
vn 5.104877 2.135153 1.292730
v 0.242350 0.080000 0.061371
vn 3.120169 -2.976246 0.258544
v 0.249146 0.000000 0.020645
vn 5.248030 2.135154 0.434864
v 0.249146 0.080000 0.020645
vn 3.120169 -2.976246 -0.258544
v 0.249146 0.000000 -0.020645
vn 5.248029 2.135154 -0.434864
v 0.249146 0.080000 -0.020645
vn 3.035059 -2.976245 -0.768581
v 0.242350 0.000000 -0.061371
vn 5.104877 2.135153 -1.292730
v 0.242350 0.080000 -0.061371
vn 2.867160 -2.976246 -1.257653
v 0.228943 0.000000 -0.100424
vn 4.822477 2.135153 -2.115335
v 0.228943 0.080000 -0.100424
vn 2.621053 -2.976246 -1.712420
v 0.209292 0.000000 -0.136737
vn 4.408531 2.135153 -2.880238
v 0.209292 0.080000 -0.136737
vn 2.303451 -2.976246 -2.120475
v 0.183931 0.000000 -0.169320
vn 3.874334 2.135154 -3.566575
v 0.183931 0.080000 -0.169320
vn 1.923016 -2.976246 -2.470691
v 0.153553 0.000000 -0.197285
vn 3.234453 2.135153 -4.155626
v 0.153553 0.080000 -0.197285
vn 1.490126 -2.976246 -2.753511
v 0.118987 0.000000 -0.219868
vn 2.506346 2.135154 -4.631322
v 0.118987 0.080000 -0.219868
vn 1.016590 -2.976246 -2.961224
v 0.081175 0.000000 -0.236454
vn 1.709873 2.135153 -4.980689
v 0.081175 0.080000 -0.236454
vn 0.515323 -2.976245 -3.088161
v 0.041149 0.000000 -0.246590
vn 0.866758 2.135153 -5.194194
v 0.041149 0.080000 -0.246590
vn -0.000000 -2.976246 -3.130862
v 0.000000 0.000000 -0.250000
vn 0.000000 0.000000 -3.130862
v 0.000000 0.080000 -0.250000
vn -0.515323 -2.976245 -3.088161
v -0.041149 0.000000 -0.246590
vn -0.866758 2.135153 -5.194193
v -0.041149 0.080000 -0.246590
vn -1.016590 -2.976246 -2.961224
v -0.081175 0.000000 -0.236454
vn -1.709873 2.135153 -4.980688
v -0.081175 0.080000 -0.236454
vn -1.490126 -2.976246 -2.753511
v -0.118987 0.000000 -0.219868
vn -2.506346 2.135153 -4.631322
v -0.118987 0.080000 -0.219868
vn -1.923015 -2.976246 -2.470690
v -0.153553 0.000000 -0.197285
vn -3.234454 2.135153 -4.155626
v -0.153553 0.080000 -0.197285
vn -2.303451 -2.976246 -2.120476
v -0.183931 0.000000 -0.169320
vn -3.874333 2.135154 -3.566575
v -0.183931 0.080000 -0.169320
vn -2.621053 -2.976246 -1.712420
v -0.209292 0.000000 -0.136737
vn -4.408532 2.135153 -2.880238
v -0.209292 0.080000 -0.136737
vn -2.867160 -2.976246 -1.257653
v -0.228943 0.000000 -0.100424
vn -4.822476 2.135153 -2.115335
v -0.228943 0.080000 -0.100424
vn -3.035059 -2.976245 -0.768581
v -0.242350 0.000000 -0.061371
vn -5.104877 2.135153 -1.292730
v -0.242350 0.080000 -0.061371
vn -3.120169 -2.976246 -0.258544
v -0.249146 0.000000 -0.020645
vn -5.248030 2.135154 -0.434864
v -0.249146 0.080000 -0.020645
vn -3.120169 -2.976246 0.258544
v -0.249146 0.000000 0.020645
vn -5.248029 2.135154 0.434864
v -0.249146 0.080000 0.020645
vn -3.035059 -2.976245 0.768581
v -0.242350 0.000000 0.061371
vn -5.104877 2.135153 1.292730
v -0.242350 0.080000 0.061371
vn -2.867160 -2.976246 1.257653
v -0.228943 0.000000 0.100424
vn -4.822477 2.135153 2.115335
v -0.228943 0.080000 0.100424
vn -2.621053 -2.976246 1.712420
v -0.209292 0.000000 0.136737
vn -4.408531 2.135153 2.880238
v -0.209292 0.080000 0.136737
vn -2.303451 -2.976246 2.120475
v -0.183931 0.000000 0.169320
vn -3.874334 2.135154 3.566575
v -0.183931 0.080000 0.169320
vn -1.923016 -2.976246 2.470691
v -0.153553 0.000000 0.197285
vn -3.234453 2.135153 4.155626
v -0.153553 0.080000 0.197285
vn -1.490126 -2.976246 2.753511
v -0.118987 0.000000 0.219868
vn -2.506346 2.135154 4.631322
v -0.118987 0.080000 0.219868
vn -1.016590 -2.976246 2.961224
v -0.081175 0.000000 0.236454
vn -1.709873 2.135153 4.980689
v -0.081175 0.080000 0.236454
vn -0.515323 -2.976245 3.088161
v -0.041149 0.000000 0.246590
vn -0.866758 2.135153 5.194194
v -0.041149 0.080000 0.246590
vn 0.000000 -2.976246 3.130862
v 0.000000 0.000000 0.250000
vn 0.000000 -6.283187 0.000000
v 0.000000 0.000000 0.000000
vn 0.000000 2.135153 -2.135153
v 0.000000 0.080000 -0.250000
vn -0.000000 2.300123 2.300123
v -0.000000 0.100000 0.230000
vn -0.000000 2.135153 2.135153
v -0.000000 0.080000 0.250000
# 146 vertices, 0 vertices normals

f 1//1 2//2 3//3
f 1//1 3//3 4//4
f 4//4 3//3 5//5
f 4//4 5//5 6//6
f 6//6 5//5 7//7
f 6//6 7//7 8//8
f 8//8 7//7 9//9
f 8//8 9//9 10//10
f 10//10 9//9 11//11
f 10//10 11//11 12//12
f 12//12 11//11 13//13
f 12//12 13//13 14//14
f 14//14 13//13 15//15
f 14//14 15//15 16//16
f 16//16 15//15 17//17
f 16//16 17//17 18//18
f 18//18 17//17 19//19
f 18//18 19//19 20//20
f 20//20 19//19 21//21
f 20//20 21//21 22//22
f 22//22 21//21 23//23
f 22//22 23//23 24//24
f 25//25 24//24 26//26
f 26//26 24//24 23//23
f 1//1 27//27 2//2
f 2//2 27//27 28//28
f 10//10 12//12 14//14
f 18//18 20//20 1//1
f 25//25 27//27 24//24
f 24//24 27//27 1//1
f 24//24 1//1 22//22
f 22//22 1//1 20//20
f 4//4 6//6 14//14
f 14//14 6//6 8//8
f 14//14 8//8 10//10
f 4//4 14//14 1//1
f 1//1 14//14 16//16
f 1//1 16//16 18//18
f 2//2 28//28 26//26
f 3//3 2//2 13//13
f 11//11 9//9 7//7
f 26//26 23//23 2//2
f 2//2 23//23 21//21
f 2//2 21//21 19//19
f 19//19 17//17 2//2
f 2//2 17//17 15//15
f 2//2 15//15 13//13
f 11//11 7//7 13//13
f 13//13 7//7 5//5
f 13//13 5//5 3//3
f 29//29 30//30 26//26
f 31//31 32//32 28//28
f 33//33 34//34 27//27
f 28//28 35//35 26//26
f 26//26 35//35 36//36
f 26//26 36//36 29//29
f 32//32 37//37 28//28
f 28//28 37//37 38//38
f 28//28 38//38 39//39
f 39//39 40//40 28//28
f 28//28 40//40 41//41
f 28//28 41//41 35//35
f 42//42 25//25 43//43
f 43//43 25//25 44//44
f 34//34 45//45 27//27
f 27//27 45//45 46//46
f 27//27 46//46 28//28
f 28//28 46//46 47//47
f 47//47 48//48 28//28
f 28//28 48//48 49//49
f 28//28 49//49 50//50
f 42//42 51//51 25//25
f 25//25 51//51 52//52
f 25//25 52//52 27//27
f 27//27 52//52 53//53
f 27//27 53//53 33//33
f 54//54 25//25 55//55
f 55//55 25//25 26//26
f 55//55 26//26 56//56
f 56//56 26//26 30//30
f 54//54 57//57 25//25
f 25//25 57//57 58//58
f 25//25 58//58 59//59
f 50//50 60//60 28//28
f 28//28 60//60 61//61
f 28//28 61//61 31//31
f 59//59 62//62 25//25
f 25//25 62//62 63//63
f 25//25 63//63 64//64
f 64//64 65//65 25//25
f 25//25 65//65 66//66
f 25//25 66//66 44//44
f 67//67 68//68 69//69
f 69//69 68//68 70//70
f 69//69 70//70 71//71
f 71//71 70//70 72//72
f 71//71 72//72 73//73
f 73//73 72//72 74//74
f 73//73 74//74 75//75
f 75//75 74//74 76//76
f 75//75 76//76 77//77
f 77//77 76//76 78//78
f 77//77 78//78 79//79
f 79//79 78//78 80//80
f 79//79 80//80 81//81
f 81//81 80//80 82//82
f 81//81 82//82 83//83
f 83//83 82//82 84//84
f 83//83 84//84 85//85
f 85//85 84//84 86//86
f 85//85 86//86 87//87
f 87//87 86//86 88//88
f 87//87 88//88 89//89
f 89//89 88//88 90//90
f 89//89 90//90 91//91
f 91//91 90//90 92//92
f 91//91 92//92 93//93
f 93//93 92//92 94//94
f 93//93 94//94 95//95
f 95//95 94//94 96//96
f 95//95 96//96 97//97
f 97//97 96//96 98//98
f 97//97 98//98 99//99
f 99//99 98//98 100//100
f 99//99 100//100 101//101
f 101//101 100//100 102//102
f 101//101 102//102 103//103
f 103//103 102//102 104//104
f 103//103 104//104 105//105
f 105//105 104//104 106//106
f 105//105 106//106 107//107
f 107//107 106//106 108//108
f 107//107 108//108 109//109
f 109//109 108//108 110//110
f 109//109 110//110 111//111
f 111//111 110//110 112//112
f 111//111 112//112 113//113
f 113//113 112//112 114//114
f 113//113 114//114 115//115
f 115//115 114//114 116//116
f 115//115 116//116 117//117
f 117//117 116//116 118//118
f 117//117 118//118 119//119
f 119//119 118//118 120//120
f 119//119 120//120 121//121
f 121//121 120//120 122//122
f 121//121 122//122 123//123
f 123//123 122//122 124//124
f 123//123 124//124 125//125
f 125//125 124//124 126//126
f 125//125 126//126 127//127
f 127//127 126//126 128//128
f 127//127 128//128 129//129
f 129//129 128//128 130//130
f 129//129 130//130 131//131
f 131//131 130//130 132//132
f 131//131 132//132 133//133
f 133//133 132//132 134//134
f 133//133 134//134 135//135
f 135//135 134//134 136//136
f 135//135 136//136 137//137
f 137//137 136//136 138//138
f 137//137 138//138 139//139
f 139//139 138//138 140//140
f 139//139 140//140 141//141
f 141//141 140//140 142//142
f 141//141 142//142 67//67
f 67//67 142//142 68//68
f 104//104 102//102 143//143
f 104//104 143//143 106//106
f 112//112 110//110 143//143
f 143//143 110//110 108//108
f 143//143 108//108 106//106
f 118//118 116//116 143//143
f 143//143 116//116 114//114
f 143//143 114//114 112//112
f 124//124 122//122 143//143
f 143//143 122//122 120//120
f 143//143 120//120 118//118
f 130//130 128//128 143//143
f 143//143 128//128 126//126
f 143//143 126//126 124//124
f 136//136 134//134 143//143
f 143//143 134//134 132//132
f 143//143 132//132 130//130
f 142//142 140//140 143//143
f 143//143 140//140 138//138
f 143//143 138//138 136//136
f 72//72 70//70 143//143
f 143//143 70//70 68//68
f 143//143 68//68 142//142
f 78//78 76//76 143//143
f 143//143 76//76 74//74
f 143//143 74//74 72//72
f 84//84 82//82 143//143
f 143//143 82//82 80//80
f 143//143 80//80 78//78
f 90//90 88//88 143//143
f 143//143 88//88 86//86
f 143//143 86//86 84//84
f 96//96 94//94 143//143
f 143//143 94//94 92//92
f 143//143 92//92 90//90
f 102//102 100//100 143//143
f 143//143 100//100 98//98
f 143//143 98//98 96//96
f 144//144 49//49 103//103
f 103//103 49//49 48//48
f 103//103 48//48 101//101
f 101//101 48//48 47//47
f 101//101 47//47 99//99
f 99//99 47//47 46//46
f 99//99 46//46 97//97
f 97//97 46//46 45//45
f 97//97 45//45 95//95
f 95//95 45//45 34//34
f 95//95 34//34 93//93
f 93//93 34//34 33//33
f 93//93 33//33 91//91
f 91//91 33//33 53//53
f 91//91 53//53 89//89
f 89//89 53//53 52//52
f 89//89 52//52 87//87
f 87//87 52//52 51//51
f 87//87 51//51 85//85
f 85//85 51//51 42//42
f 85//85 42//42 83//83
f 83//83 42//42 43//43
f 83//83 43//43 81//81
f 81//81 43//43 44//44
f 81//81 44//44 79//79
f 79//79 44//44 66//66
f 79//79 66//66 77//77
f 77//77 66//66 65//65
f 77//77 65//65 75//75
f 75//75 65//65 64//64
f 75//75 64//64 73//73
f 73//73 64//64 63//63
f 73//73 63//63 71//71
f 71//71 63//63 62//62
f 71//71 62//62 69//69
f 69//69 62//62 145//145
f 69//69 145//145 146//146
f 146//146 145//145 58//58
f 146//146 58//58 141//141
f 141//141 58//58 57//57
f 141//141 57//57 139//139
f 139//139 57//57 54//54
f 139//139 54//54 137//137
f 137//137 54//54 55//55
f 137//137 55//55 135//135
f 135//135 55//55 56//56
f 135//135 56//56 133//133
f 133//133 56//56 30//30
f 133//133 30//30 131//131
f 131//131 30//30 29//29
f 131//131 29//29 129//129
f 129//129 29//29 36//36
f 129//129 36//36 127//127
f 127//127 36//36 35//35
f 127//127 35//35 125//125
f 125//125 35//35 41//41
f 125//125 41//41 123//123
f 123//123 41//41 40//40
f 123//123 40//40 121//121
f 121//121 40//40 39//39
f 121//121 39//39 119//119
f 119//119 39//39 38//38
f 119//119 38//38 117//117
f 117//117 38//38 37//37
f 117//117 37//37 115//115
f 115//115 37//37 32//32
f 115//115 32//32 113//113
f 113//113 32//32 31//31
f 113//113 31//31 111//111
f 111//111 31//31 61//61
f 111//111 61//61 109//109
f 109//109 61//61 60//60
f 109//109 60//60 107//107
f 107//107 60//60 50//50
f 107//107 50//50 144//144
f 144//144 50//50 49//49
# 282 faces, 0 coords texture

# End of File
