####
#
# OBJ File Generated by Meshlab
#
####
# Object LEG2.obj
#
# Vertices: 172
# Faces: 324
#
####
vn 3.010694 0.205030 -3.128154
v -0.125000 0.300000 -0.075000
vn -2.151587 0.342063 -5.279738
v -0.165000 0.300000 -0.075000
vn -2.081729 1.344939 -5.019379
v -0.165000 0.319411 -0.072444
vn 2.879793 0.806148 -3.008584
v -0.125000 0.319411 -0.072444
vn -2.081729 2.598222 -4.500251
v -0.165000 0.337500 -0.064952
vn 2.879793 1.557358 -2.697423
v -0.125000 0.337500 -0.064952
vn -2.081730 3.674440 -3.674440
v -0.165000 0.353033 -0.053033
vn 2.879794 2.202437 -2.202437
v -0.125000 0.353033 -0.053033
vn -2.081728 4.500252 -2.598221
v -0.165000 0.364952 -0.037500
vn 2.879792 2.697423 -1.557357
v -0.125000 0.364952 -0.037500
vn -2.081728 5.019383 -1.344939
v -0.165000 0.372444 -0.019411
vn 2.879795 3.008585 -0.806148
v -0.125000 0.372444 -0.019411
vn 0.000000 3.114716 0.000000
v -0.165000 0.375000 0.000000
vn 2.879792 3.114716 -0.000000
v -0.125000 0.375000 0.000000
vn -2.081728 5.019382 1.344940
v -0.165000 0.372444 0.019411
vn 2.879795 3.008585 0.806148
v -0.125000 0.372444 0.019411
vn -2.081729 4.500252 2.598220
v -0.165000 0.364952 0.037500
vn 2.879792 2.697423 1.557357
v -0.125000 0.364952 0.037500
vn -2.081730 3.674441 3.674440
v -0.165000 0.353033 0.053033
vn 2.879794 2.202437 2.202437
v -0.125000 0.353033 0.053033
vn -2.081729 2.598222 4.500252
v -0.165000 0.337500 0.064952
vn 2.879793 1.557358 2.697423
v -0.125000 0.337500 0.064952
vn -2.081729 1.344939 5.019379
v -0.165000 0.319411 0.072444
vn 2.879794 0.806148 3.008584
v -0.125000 0.319411 0.072444
vn -2.151587 0.342063 5.279737
v -0.165000 0.300000 0.075000
vn 3.010693 0.205030 3.128154
v -0.125000 0.300000 0.075000
vn -1.570796 -1.570796 4.712389
v 0.125000 0.075000 0.075000
vn -3.010693 -0.205030 3.128154
v 0.125000 -0.000000 0.075000
vn 2.151587 -0.342062 5.279737
v 0.165000 -0.000000 0.075000
vn -2.151587 -0.342062 5.279738
v -0.165000 -0.000000 0.075000
vn 1.570796 -1.570796 4.712389
v -0.125000 0.075000 0.075000
vn 3.010693 -0.205030 3.128154
v -0.125000 -0.000000 0.075000
vn 2.151587 0.342063 5.279738
v 0.165000 0.300000 0.075000
vn -3.010693 0.205030 3.128154
v 0.125000 0.300000 0.075000
vn -1.570796 1.570796 4.712389
v 0.125000 0.225000 0.075000
vn 1.570796 1.570796 4.712389
v -0.125000 0.225000 0.075000
vn -2.879793 -0.806148 3.008584
v 0.125000 -0.019411 0.072444
vn 2.081729 -1.344939 5.019378
v 0.165000 -0.019411 0.072444
vn -2.879794 -1.557358 2.697423
v 0.125000 -0.037500 0.064952
vn 2.081729 -2.598222 4.500253
v 0.165000 -0.037500 0.064952
vn -2.879793 -2.202437 2.202437
v 0.125000 -0.053033 0.053033
vn 2.081729 -3.674440 3.674439
v 0.165000 -0.053033 0.053033
vn -2.879793 -2.697423 1.557357
v 0.125000 -0.064952 0.037500
vn 2.081730 -4.500252 2.598220
v 0.165000 -0.064952 0.037500
vn -2.879794 -3.008584 0.806148
v 0.125000 -0.072444 0.019411
vn 2.081729 -5.019380 1.344939
v 0.165000 -0.072444 0.019411
vn -2.879794 -3.114716 -0.000000
v 0.125000 -0.075000 0.000000
vn 0.000000 -3.114716 0.000000
v 0.165000 -0.075000 0.000000
vn -2.879794 -3.008584 -0.806148
v 0.125000 -0.072444 -0.019411
vn 2.081728 -5.019380 -1.344938
v 0.165000 -0.072444 -0.019411
vn -2.879793 -2.697423 -1.557357
v 0.125000 -0.064952 -0.037500
vn 2.081729 -4.500252 -2.598221
v 0.165000 -0.064952 -0.037500
vn -2.879792 -2.202437 -2.202436
v 0.125000 -0.053033 -0.053033
vn 2.081730 -3.674440 -3.674440
v 0.165000 -0.053033 -0.053033
vn -2.879793 -1.557358 -2.697423
v 0.125000 -0.037500 -0.064952
vn 2.081729 -2.598222 -4.500252
v 0.165000 -0.037500 -0.064952
vn -2.879793 -0.806148 -3.008584
v 0.125000 -0.019411 -0.072444
vn 2.081729 -1.344939 -5.019378
v 0.165000 -0.019411 -0.072444
vn -3.010694 -0.205030 -3.128154
v 0.125000 -0.000000 -0.075000
vn 2.151587 -0.342062 -5.279738
v 0.165000 -0.000000 -0.075000
vn -1.570796 1.570796 -4.712389
v 0.125000 0.225000 -0.075000
vn -3.010694 0.205030 -3.128154
v 0.125000 0.300000 -0.075000
vn 2.151587 0.342063 -5.279737
v 0.165000 0.300000 -0.075000
vn -2.151587 -0.342062 -5.279737
v -0.165000 -0.000000 -0.075000
vn 1.570796 1.570796 -4.712389
v -0.125000 0.225000 -0.075000
vn -1.570796 -1.570796 -4.712389
v 0.125000 0.075000 -0.075000
vn 3.010694 -0.205030 -3.128154
v -0.125000 -0.000000 -0.075000
vn 1.570796 -1.570796 -4.712389
v -0.125000 0.075000 -0.075000
vn -2.879793 0.806148 -3.008584
v 0.125000 0.319411 -0.072444
vn 2.081729 1.344939 -5.019379
v 0.165000 0.319411 -0.072444
vn -2.879793 1.557358 -2.697423
v 0.125000 0.337500 -0.064952
vn 2.081729 2.598222 -4.500252
v 0.165000 0.337500 -0.064952
vn -2.879794 2.202437 -2.202437
v 0.125000 0.353033 -0.053033
vn 2.081730 3.674441 -3.674440
v 0.165000 0.353033 -0.053033
vn -2.879792 2.697423 -1.557357
v 0.125000 0.364952 -0.037500
vn 2.081729 4.500252 -2.598220
v 0.165000 0.364952 -0.037500
vn -2.879795 3.008585 -0.806148
v 0.125000 0.372444 -0.019411
vn 2.081728 5.019382 -1.344940
v 0.165000 0.372444 -0.019411
vn -2.879792 3.114716 0.000000
v 0.125000 0.375000 0.000000
vn 0.000000 3.114716 -0.000000
v 0.165000 0.375000 0.000000
vn -2.879795 3.008585 0.806148
v 0.125000 0.372444 0.019411
vn 2.081728 5.019383 1.344939
v 0.165000 0.372444 0.019411
vn -2.879793 2.697423 1.557357
v 0.125000 0.364952 0.037500
vn 2.081728 4.500252 2.598221
v 0.165000 0.364952 0.037500
vn -2.879794 2.202437 2.202437
v 0.125000 0.353033 0.053033
vn 2.081730 3.674440 3.674440
v 0.165000 0.353033 0.053033
vn -2.879793 1.557358 2.697423
v 0.125000 0.337500 0.064952
vn 2.081729 2.598222 4.500251
v 0.165000 0.337500 0.064952
vn -2.879794 0.806148 3.008584
v 0.125000 0.319411 0.072444
vn 2.081729 1.344939 5.019379
v 0.165000 0.319411 0.072444
vn -2.081729 -1.344939 5.019378
v -0.165000 -0.019411 0.072444
vn 2.879793 -0.806148 3.008584
v -0.125000 -0.019411 0.072444
vn -2.081729 -2.598222 4.500252
v -0.165000 -0.037500 0.064952
vn 2.879794 -1.557358 2.697423
v -0.125000 -0.037500 0.064952
vn -2.081730 -3.674440 3.674440
v -0.165000 -0.053033 0.053033
vn 2.879793 -2.202437 2.202436
v -0.125000 -0.053033 0.053033
vn -2.081729 -4.500252 2.598221
v -0.165000 -0.064952 0.037500
vn 2.879793 -2.697423 1.557357
v -0.125000 -0.064952 0.037500
vn -2.081728 -5.019380 1.344938
v -0.165000 -0.072444 0.019411
vn 2.879794 -3.008584 0.806148
v -0.125000 -0.072444 0.019411
vn 0.000000 -3.114716 -0.000000
v -0.165000 -0.075000 0.000000
vn 2.879793 -3.114716 0.000000
v -0.125000 -0.075000 0.000000
vn -2.081729 -5.019380 -1.344939
v -0.165000 -0.072444 -0.019411
vn 2.879793 -3.008584 -0.806148
v -0.125000 -0.072444 -0.019411
vn -2.081730 -4.500252 -2.598220
v -0.165000 -0.064952 -0.037500
vn 2.879794 -2.697423 -1.557357
v -0.125000 -0.064952 -0.037500
vn -2.081729 -3.674440 -3.674439
v -0.165000 -0.053033 -0.053033
vn 2.879793 -2.202437 -2.202437
v -0.125000 -0.053033 -0.053033
vn -2.081729 -2.598222 -4.500253
v -0.165000 -0.037500 -0.064952
vn 2.879794 -1.557358 -2.697423
v -0.125000 -0.037500 -0.064952
vn -2.081729 -1.344939 -5.019378
v -0.165000 -0.019411 -0.072444
vn 2.879793 -0.806148 -3.008584
v -0.125000 -0.019411 -0.072444
vn 5.221823 1.656062 1.656062
v 0.175000 0.345962 0.045962
vn 5.221821 1.171014 2.028254
v 0.175000 0.332500 0.056292
vn 5.292431 0.154167 -2.281733
v 0.175000 0.300000 -0.065000
vn 5.221822 -0.606161 2.262223
v 0.175000 -0.016823 0.062785
vn 5.221823 -2.028253 -1.171013
v 0.175000 -0.056292 -0.032500
vn 5.292431 -0.154167 2.281733
v 0.175000 -0.000000 0.065000
vn 5.221822 -1.656062 -1.656062
v 0.175000 -0.045962 -0.045962
vn 5.221821 -1.171014 -2.028254
v 0.175000 -0.032500 -0.056292
vn 2.879793 0.000000 0.000000
v 0.175000 -0.065000 0.000000
vn 5.221821 -1.656063 1.656062
v 0.175000 -0.045962 0.045962
vn 5.221820 -2.262225 0.606162
v 0.175000 -0.062785 0.016823
vn 5.221822 -2.028254 1.171013
v 0.175000 -0.056292 0.032500
vn 5.221822 -1.171013 2.028255
v 0.175000 -0.032500 0.056292
vn 5.221821 -2.262225 -0.606161
v 0.175000 -0.062785 -0.016823
vn 5.221823 2.028253 1.171014
v 0.175000 0.356292 0.032500
vn 5.221822 -0.606161 -2.262223
v 0.175000 -0.016823 -0.062785
vn 5.292429 -0.154167 -2.281733
v 0.175000 -0.000000 -0.065000
vn 5.292429 0.154167 2.281733
v 0.175000 0.300000 0.065000
vn 5.221822 0.606161 2.262223
v 0.175000 0.316823 0.062785
vn 5.221821 1.171014 -2.028255
v 0.175000 0.332500 -0.056292
vn 5.221823 1.656062 -1.656062
v 0.175000 0.345962 -0.045962
vn 5.221817 2.262227 0.606161
v 0.175000 0.362785 0.016823
vn 5.221821 2.028254 -1.171013
v 0.175000 0.356292 -0.032500
vn 5.221818 2.262226 -0.606163
v 0.175000 0.362785 -0.016823
vn 2.879794 0.000000 0.000000
v 0.175000 0.365000 0.000000
vn 5.221822 0.606161 -2.262224
v 0.175000 0.316823 -0.062785
vn -5.292430 0.154167 2.281733
v -0.175000 0.300000 0.065000
vn -5.221821 0.606161 2.262224
v -0.175000 0.316823 0.062785
vn -5.292430 0.154167 -2.281733
v -0.175000 0.300000 -0.065000
vn -5.221821 1.171014 2.028255
v -0.175000 0.332500 0.056292
vn -5.292431 -0.154167 2.281733
v -0.175000 -0.000000 0.065000
vn -5.292430 -0.154167 -2.281733
v -0.175000 -0.000000 -0.065000
vn -5.221822 -0.606161 -2.262223
v -0.175000 -0.016823 -0.062785
vn -5.221822 -1.171013 -2.028255
v -0.175000 -0.032500 -0.056292
vn -5.221823 -1.656063 -1.656062
v -0.175000 -0.045962 -0.045962
vn -5.221823 -2.028254 -1.171013
v -0.175000 -0.056292 -0.032500
vn -5.221820 -2.262225 -0.606162
v -0.175000 -0.062785 -0.016823
vn -2.879792 0.000000 0.000000
v -0.175000 -0.065000 0.000000
vn -5.221822 -0.606161 2.262223
v -0.175000 -0.016823 0.062785
vn -5.221823 1.656062 1.656062
v -0.175000 0.345962 0.045962
vn -5.221821 2.028254 1.171013
v -0.175000 0.356292 0.032500
vn -5.221819 2.262226 0.606163
v -0.175000 0.362785 0.016823
vn -2.879793 0.000000 0.000000
v -0.175000 0.365000 0.000000
vn -5.221819 2.262227 -0.606161
v -0.175000 0.362785 -0.016823
vn -5.221822 2.028253 -1.171014
v -0.175000 0.356292 -0.032500
vn -5.221820 -2.262225 0.606161
v -0.175000 -0.062785 0.016823
vn -5.221822 -2.028253 1.171013
v -0.175000 -0.056292 0.032500
vn -5.221820 -1.656062 1.656062
v -0.175000 -0.045962 0.045962
vn -5.221823 1.656062 -1.656062
v -0.175000 0.345962 -0.045962
vn -5.221821 1.171014 -2.028254
v -0.175000 0.332500 -0.056292
vn -5.221822 0.606161 -2.262223
v -0.175000 0.316823 -0.062785
vn -5.221821 -1.171014 2.028254
v -0.175000 -0.032500 0.056292
vn -2.081727 2.081728 -0.000000
v -0.165000 0.375000 0.000000
vn -2.342027 2.342028 -0.000001
v -0.175000 0.365000 0.000000
vn -2.081728 -2.081728 0.000000
v -0.165000 -0.075000 0.000000
vn -2.342027 -2.342027 0.000000
v -0.175000 -0.065000 0.000000
vn 2.081728 -2.081728 -0.000000
v 0.165000 -0.075000 0.000000
vn 2.342027 -2.342027 -0.000000
v 0.175000 -0.065000 0.000000
vn 2.081727 2.081728 0.000000
v 0.165000 0.375000 0.000000
vn 2.342027 2.342028 0.000001
v 0.175000 0.365000 0.000000
# 172 vertices, 0 vertices normals

f 1//1 2//2 3//3
f 1//1 3//3 4//4
f 4//4 3//3 5//5
f 4//4 5//5 6//6
f 6//6 5//5 7//7
f 6//6 7//7 8//8
f 8//8 7//7 9//9
f 8//8 9//9 10//10
f 10//10 9//9 11//11
f 10//10 11//11 12//12
f 12//12 11//11 13//13
f 12//12 13//13 14//14
f 14//14 13//13 15//15
f 14//14 15//15 16//16
f 16//16 15//15 17//17
f 16//16 17//17 18//18
f 18//18 17//17 19//19
f 18//18 19//19 20//20
f 20//20 19//19 21//21
f 20//20 21//21 22//22
f 22//22 21//21 23//23
f 22//22 23//23 24//24
f 24//24 23//23 25//25
f 24//24 25//25 26//26
f 27//27 28//28 29//29
f 25//25 30//30 31//31
f 31//31 30//30 32//32
f 33//33 34//34 35//35
f 26//26 25//25 36//36
f 36//36 25//25 31//31
f 36//36 31//31 35//35
f 35//35 31//31 27//27
f 35//35 27//27 33//33
f 33//33 27//27 29//29
f 29//29 28//28 37//37
f 29//29 37//37 38//38
f 38//38 37//37 39//39
f 38//38 39//39 40//40
f 40//40 39//39 41//41
f 40//40 41//41 42//42
f 42//42 41//41 43//43
f 42//42 43//43 44//44
f 44//44 43//43 45//45
f 44//44 45//45 46//46
f 46//46 45//45 47//47
f 46//46 47//47 48//48
f 48//48 47//47 49//49
f 48//48 49//49 50//50
f 50//50 49//49 51//51
f 50//50 51//51 52//52
f 52//52 51//51 53//53
f 52//52 53//53 54//54
f 54//54 53//53 55//55
f 54//54 55//55 56//56
f 56//56 55//55 57//57
f 56//56 57//57 58//58
f 58//58 57//57 59//59
f 58//58 59//59 60//60
f 61//61 62//62 63//63
f 64//64 2//2 65//65
f 65//65 2//2 1//1
f 60//60 59//59 66//66
f 67//67 64//64 68//68
f 68//68 64//64 65//65
f 68//68 65//65 66//66
f 66//66 65//65 61//61
f 66//66 61//61 60//60
f 60//60 61//61 63//63
f 63//63 62//62 69//69
f 63//63 69//69 70//70
f 70//70 69//69 71//71
f 70//70 71//71 72//72
f 72//72 71//71 73//73
f 72//72 73//73 74//74
f 74//74 73//73 75//75
f 74//74 75//75 76//76
f 76//76 75//75 77//77
f 76//76 77//77 78//78
f 78//78 77//77 79//79
f 78//78 79//79 80//80
f 80//80 79//79 81//81
f 80//80 81//81 82//82
f 82//82 81//81 83//83
f 82//82 83//83 84//84
f 84//84 83//83 85//85
f 84//84 85//85 86//86
f 86//86 85//85 87//87
f 86//86 87//87 88//88
f 88//88 87//87 89//89
f 88//88 89//89 90//90
f 90//90 89//89 34//34
f 90//90 34//34 33//33
f 32//32 30//30 91//91
f 32//32 91//91 92//92
f 92//92 91//91 93//93
f 92//92 93//93 94//94
f 94//94 93//93 95//95
f 94//94 95//95 96//96
f 96//96 95//95 97//97
f 96//96 97//97 98//98
f 98//98 97//97 99//99
f 98//98 99//99 100//100
f 100//100 99//99 101//101
f 100//100 101//101 102//102
f 102//102 101//101 103//103
f 102//102 103//103 104//104
f 104//104 103//103 105//105
f 104//104 105//105 106//106
f 106//106 105//105 107//107
f 106//106 107//107 108//108
f 108//108 107//107 109//109
f 108//108 109//109 110//110
f 110//110 109//109 111//111
f 110//110 111//111 112//112
f 112//112 111//111 64//64
f 112//112 64//64 67//67
f 113//113 114//114 115//115
f 116//116 117//117 118//118
f 118//118 117//117 119//119
f 118//118 119//119 120//120
f 121//121 122//122 123//123
f 123//123 122//122 124//124
f 116//116 125//125 117//117
f 117//117 125//125 122//122
f 117//117 122//122 126//126
f 126//126 122//122 121//121
f 113//113 115//115 127//127
f 120//120 128//128 118//118
f 118//118 128//128 129//129
f 118//118 129//129 130//130
f 130//130 129//129 115//115
f 130//130 115//115 131//131
f 131//131 115//115 114//114
f 132//132 133//133 134//134
f 133//133 135//135 134//134
f 134//134 135//135 136//136
f 134//134 136//136 137//137
f 127//127 115//115 134//134
f 134//134 115//115 138//138
f 134//134 138//138 132//132
f 139//139 140//140 141//141
f 141//141 140//140 142//142
f 139//139 141//141 143//143
f 143//143 141//141 144//144
f 143//143 144//144 145//145
f 145//145 146//146 143//143
f 143//143 146//146 147//147
f 143//143 147//147 148//148
f 148//148 149//149 143//143
f 143//143 149//149 150//150
f 143//143 150//150 151//151
f 142//142 152//152 141//141
f 141//141 152//152 153//153
f 141//141 153//153 154//154
f 154//154 155//155 141//141
f 141//141 155//155 156//156
f 141//141 156//156 157//157
f 158//158 159//159 160//160
f 161//161 162//162 157//157
f 157//157 162//162 163//163
f 157//157 163//163 141//141
f 158//158 160//160 150//150
f 150//150 160//160 164//164
f 150//150 164//164 151//151
f 67//67 68//68 31//31
f 112//112 67//67 102//102
f 102//102 67//67 100//100
f 31//31 32//32 67//67
f 67//67 32//32 92//92
f 67//67 92//92 94//94
f 94//94 96//96 67//67
f 67//67 96//96 98//98
f 67//67 98//98 100//100
f 102//102 104//104 106//106
f 106//106 108//108 102//102
f 102//102 108//108 110//110
f 102//102 110//110 112//112
f 59//59 47//47 45//45
f 45//45 43//43 59//59
f 59//59 43//43 41//41
f 59//59 41//41 39//39
f 27//27 66//66 28//28
f 28//28 66//66 59//59
f 28//28 59//59 37//37
f 37//37 59//59 39//39
f 55//55 53//53 51//51
f 59//59 57//57 47//47
f 47//47 57//57 55//55
f 47//47 55//55 49//49
f 49//49 55//55 51//51
f 31//31 68//68 27//27
f 27//27 68//68 66//66
f 20//20 22//22 1//1
f 36//36 65//65 26//26
f 26//26 65//65 1//1
f 26//26 1//1 24//24
f 24//24 1//1 22//22
f 6//6 8//8 4//4
f 4//4 8//8 1//1
f 8//8 10//10 1//1
f 1//1 10//10 12//12
f 1//1 12//12 14//14
f 14//14 16//16 1//1
f 1//1 16//16 18//18
f 1//1 18//18 20//20
f 62//62 61//61 35//35
f 35//35 34//34 62//62
f 62//62 34//34 89//89
f 62//62 89//89 87//87
f 77//77 83//83 79//79
f 79//79 83//83 81//81
f 77//77 75//75 83//83
f 83//83 75//75 73//73
f 83//83 73//73 71//71
f 87//87 85//85 62//62
f 62//62 85//85 83//83
f 62//62 83//83 69//69
f 69//69 83//83 71//71
f 65//65 36//36 61//61
f 61//61 36//36 35//35
f 141//141 2//2 144//144
f 144//144 2//2 64//64
f 139//139 25//25 23//23
f 139//139 23//23 140//140
f 140//140 23//23 21//21
f 140//140 21//21 142//142
f 142//142 21//21 19//19
f 142//142 19//19 152//152
f 152//152 19//19 17//17
f 152//152 17//17 153//153
f 153//153 17//17 15//15
f 153//153 15//15 154//154
f 154//154 15//15 165//165
f 154//154 165//165 166//166
f 166//166 165//165 11//11
f 166//166 11//11 156//156
f 156//156 11//11 9//9
f 156//156 9//9 157//157
f 157//157 9//9 7//7
f 157//157 7//7 161//161
f 161//161 7//7 5//5
f 161//161 5//5 162//162
f 162//162 5//5 3//3
f 162//162 3//3 163//163
f 163//163 3//3 2//2
f 163//163 2//2 141//141
f 144//144 64//64 111//111
f 144//144 111//111 145//145
f 145//145 111//111 109//109
f 145//145 109//109 146//146
f 146//146 109//109 107//107
f 146//146 107//107 147//147
f 147//147 107//107 105//105
f 147//147 105//105 148//148
f 148//148 105//105 103//103
f 148//148 103//103 149//149
f 149//149 103//103 167//167
f 149//149 167//167 168//168
f 168//168 167//167 99//99
f 168//168 99//99 158//158
f 158//158 99//99 97//97
f 158//158 97//97 159//159
f 159//159 97//97 95//95
f 159//159 95//95 160//160
f 160//160 95//95 93//93
f 160//160 93//93 164//164
f 164//164 93//93 91//91
f 164//164 91//91 151//151
f 151//151 91//91 30//30
f 151//151 30//30 143//143
f 143//143 30//30 139//139
f 139//139 30//30 25//25
f 29//29 118//118 33//33
f 33//33 118//118 130//130
f 118//118 29//29 38//38
f 118//118 38//38 116//116
f 116//116 38//38 40//40
f 116//116 40//40 125//125
f 125//125 40//40 42//42
f 125//125 42//42 122//122
f 122//122 42//42 44//44
f 122//122 44//44 124//124
f 124//124 44//44 46//46
f 124//124 46//46 123//123
f 123//123 46//46 169//169
f 123//123 169//169 170//170
f 170//170 169//169 50//50
f 170//170 50//50 126//126
f 126//126 50//50 52//52
f 126//126 52//52 117//117
f 117//117 52//52 54//54
f 117//117 54//54 119//119
f 119//119 54//54 56//56
f 119//119 56//56 120//120
f 120//120 56//56 58//58
f 120//120 58//58 128//128
f 128//128 58//58 60//60
f 128//128 60//60 129//129
f 115//115 63//63 70//70
f 115//115 70//70 138//138
f 138//138 70//70 72//72
f 138//138 72//72 132//132
f 132//132 72//72 74//74
f 132//132 74//74 133//133
f 133//133 74//74 76//76
f 133//133 76//76 135//135
f 135//135 76//76 78//78
f 135//135 78//78 136//136
f 136//136 78//78 171//171
f 136//136 171//171 172//172
f 172//172 171//171 82//82
f 172//172 82//82 134//134
f 134//134 82//82 84//84
f 134//134 84//84 127//127
f 127//127 84//84 86//86
f 127//127 86//86 113//113
f 113//113 86//86 88//88
f 113//113 88//88 114//114
f 114//114 88//88 90//90
f 114//114 90//90 131//131
f 131//131 90//90 33//33
f 131//131 33//33 130//130
f 63//63 115//115 60//60
f 60//60 115//115 129//129
# 324 faces, 0 coords texture

# End of File
