####
#
# OBJ File Generated by Meshlab
#
####
# Object LEG5.obj
#
# Vertices: 207
# Faces: 402
#
####
vn 5.817142 1.730368 -0.409518
v 0.124714 0.074523 -0.008449
vn 3.028798 0.067064 -0.000010
v 0.125000 0.075000 0.000000
vn 3.048001 3.059538 -0.690188
v 0.125000 0.073120 -0.016689
vn 3.082860 2.598391 2.902772
v 0.117462 0.061622 0.042753
vn 3.010710 2.393086 3.342812
v 0.115924 0.058637 0.046762
vn 2.971208 2.415105 1.984849
v 0.125000 0.058637 0.046762
vn 2.076768 0.442792 5.319659
v 0.101980 0.020000 0.072284
vn 1.826679 -1.718831 4.498705
v 0.097242 0.016668 0.073124
vn 2.943818 0.675705 3.049963
v 0.125000 0.016689 0.073120
vn -5.817142 1.730368 0.409518
v -0.124714 0.074523 0.008449
vn -0.111605 0.067064 0.000010
v -0.125000 0.075000 0.000000
vn -3.048001 3.059538 0.690188
v -0.125000 0.073120 0.016689
vn -3.082860 2.598391 -2.902772
v -0.117462 0.061622 -0.042753
vn -3.010710 2.393086 -3.342812
v -0.115924 0.058637 -0.046762
vn -2.971208 2.415105 -1.984849
v -0.125000 0.058637 -0.046762
vn -2.076768 0.442792 -5.319659
v -0.101980 0.020000 -0.072284
vn -1.826679 -1.718831 -4.498705
v -0.097242 0.016668 -0.073124
vn -2.943818 0.675705 -3.049963
v -0.125000 0.016689 -0.073120
vn 2.960599 0.687504 -3.048534
v 0.125000 0.016689 -0.073120
vn 2.076838 0.442896 -5.319640
v 0.101980 0.020000 -0.072284
vn 2.570410 1.182389 -4.909027
v 0.103436 0.026438 -0.070186
vn 2.971153 1.353045 -2.818273
v 0.125000 0.032541 -0.067573
vn 2.917193 -0.694674 -3.043567
v 0.125000 -0.016689 -0.073120
vn 1.123402 -2.560390 -4.971537
v 0.073485 0.000000 -0.075000
vn 2.932770 -0.011695 -3.123069
v 0.125000 0.000000 -0.075000
vn 1.641710 -1.959758 -4.708539
v 0.088497 0.010525 -0.074258
vn 1.781139 -1.618252 -4.482273
v 0.097242 0.016668 -0.073124
vn -2.923332 -0.001775 -3.122014
v -0.125000 0.000000 -0.075000
vn -2.625110 1.075976 -4.842406
v -0.103434 0.026429 -0.070189
vn -2.971156 1.353051 -2.818271
v -0.125000 0.032541 -0.067573
vn -2.705190 1.367509 -4.598348
v -0.105161 0.032541 -0.067573
vn -2.812748 1.659101 -4.300682
v -0.108253 0.041458 -0.062500
vn -2.978959 1.954366 -2.439763
v -0.125000 0.046762 -0.058637
vn -2.842919 1.944687 -3.992724
v -0.110393 0.046762 -0.058637
vn -3.037252 2.228973 -3.634593
v -0.113184 0.053015 -0.053051
vn -3.740804 2.938305 -1.592630
v -0.123091 0.071773 -0.021762
vn -2.986342 2.781775 -1.434531
v -0.125000 0.067573 -0.032541
vn -3.047518 3.059491 -0.690301
v -0.125000 0.073120 -0.016689
vn -3.394577 2.969469 -1.865772
v -0.121993 0.069874 -0.027252
vn -3.167200 2.812505 -2.349181
v -0.120690 0.067573 -0.032541
vn -3.420796 2.696848 -2.595703
v -0.119156 0.064794 -0.037772
vn -5.820567 1.687920 -0.428915
v -0.124716 0.074525 -0.008428
vn -3.201892 3.120980 -1.106229
v -0.123881 0.073120 -0.016689
vn -3.096113 2.869470 2.249870
v -0.120690 0.067573 0.032541
vn -3.399215 3.002667 1.851777
v -0.121995 0.069877 0.027242
vn -3.043654 2.811132 1.384907
v -0.125000 0.067573 0.032541
vn -3.732642 2.973598 1.627611
v -0.123101 0.071790 0.021706
vn -3.201424 3.120861 1.105394
v -0.123881 0.073120 0.016689
vn -3.224149 2.690389 2.649017
v -0.119157 0.064795 0.037771
vn -3.011470 2.434514 1.967154
v -0.125000 0.058637 0.046762
vn -3.062388 2.632732 2.950765
v -0.117428 0.061557 0.042845
vn -2.987330 1.942879 2.450944
v -0.125000 0.046762 0.058637
vn -2.966005 2.211486 3.658225
v -0.113190 0.053029 0.053037
vn -2.959548 2.467384 3.281211
v -0.115924 0.058637 0.046762
vn -2.971153 1.353045 2.818273
v -0.125000 0.032541 0.067573
vn -2.782384 1.686457 4.349223
v -0.108253 0.041458 0.062500
vn -2.843045 1.944814 3.992625
v -0.110393 0.046762 0.058637
vn -1.781139 -1.618252 4.482273
v -0.097242 0.016668 0.073124
vn -2.076838 0.442896 5.319640
v -0.101980 0.020000 0.072284
vn -2.960599 0.687504 3.048533
v -0.125000 0.016689 0.073120
vn -2.570410 1.182389 4.909027
v -0.103436 0.026438 0.070186
vn -2.642163 1.378142 4.687189
v -0.105161 0.032541 0.067573
vn 2.923332 -0.001775 3.122014
v 0.125000 0.000000 0.075000
vn 2.625110 1.075976 4.842406
v 0.103434 0.026429 0.070189
vn 2.971156 1.353051 2.818271
v 0.125000 0.032541 0.067573
vn 2.705190 1.367509 4.598348
v 0.105161 0.032541 0.067573
vn 2.812748 1.659101 4.300682
v 0.108253 0.041458 0.062500
vn 2.978959 1.954366 2.439763
v 0.125000 0.046762 0.058637
vn 2.842919 1.944687 3.992724
v 0.110393 0.046762 0.058637
vn 3.037252 2.228973 3.634593
v 0.113184 0.053015 0.053051
vn 3.740804 2.938305 1.592630
v 0.123091 0.071773 0.021762
vn 2.986342 2.781775 1.434531
v 0.125000 0.067573 0.032541
vn 3.047518 3.059491 0.690301
v 0.125000 0.073120 0.016689
vn 3.394576 2.969469 1.865772
v 0.121993 0.069874 0.027252
vn 3.167200 2.812505 2.349181
v 0.120690 0.067573 0.032541
vn 3.420796 2.696848 2.595703
v 0.119156 0.064794 0.037772
vn 5.820567 1.687920 0.428915
v 0.124716 0.074525 0.008428
vn 3.201892 3.120980 1.106229
v 0.123881 0.073120 0.016689
vn 3.096113 2.869470 -2.249870
v 0.120690 0.067573 -0.032541
vn 3.399215 3.002667 -1.851777
v 0.121995 0.069877 -0.027242
vn 3.043654 2.811132 -1.384907
v 0.125000 0.067573 -0.032541
vn 3.732642 2.973598 -1.627611
v 0.123101 0.071790 -0.021706
vn 3.201424 3.120861 -1.105394
v 0.123881 0.073120 -0.016689
vn 3.224149 2.690389 -2.649017
v 0.119157 0.064795 -0.037771
vn 3.011470 2.434514 -1.967154
v 0.125000 0.058637 -0.046762
vn 3.062388 2.632732 -2.950765
v 0.117428 0.061557 -0.042845
vn 2.987330 1.942879 -2.450944
v 0.125000 0.046762 -0.058637
vn 2.966005 2.211486 -3.658225
v 0.113190 0.053029 -0.053037
vn 2.959548 2.467384 -3.281211
v 0.115924 0.058637 -0.046762
vn 2.642163 1.378142 -4.687189
v 0.105161 0.032541 -0.067573
vn 2.782384 1.686457 -4.349223
v 0.108253 0.041458 -0.062500
vn 2.843045 1.944814 -3.992625
v 0.110393 0.046762 -0.058637
vn 1.675677 -1.952177 4.696003
v 0.088497 0.010525 0.074258
vn 1.110364 -2.630841 4.893544
v 0.073485 0.000000 0.075000
vn 2.917193 -0.694675 3.043569
v 0.125000 -0.016689 0.073120
vn -1.641710 -1.959758 4.708539
v -0.088497 0.010525 0.074258
vn -2.932770 -0.011695 3.123069
v -0.125000 0.000000 0.075000
vn -1.123402 -2.560390 4.971537
v -0.073485 0.000000 0.075000
vn -2.917193 -0.694674 3.043567
v -0.125000 -0.016689 0.073120
vn -1.675677 -1.952177 -4.696003
v -0.088497 0.010525 -0.074258
vn -1.110364 -2.630841 -4.893544
v -0.073485 0.000000 -0.075000
vn -2.917193 -0.694675 -3.043569
v -0.125000 -0.016689 -0.073120
vn -2.917193 -1.354515 2.812680
v -0.125000 -0.032541 0.067573
vn 2.917193 -1.354516 2.812680
v 0.125000 -0.032541 0.067573
vn -2.917193 -1.946435 2.440753
v -0.125000 -0.046762 0.058637
vn 2.917193 -1.946435 2.440753
v 0.125000 -0.046762 0.058637
vn -2.917193 -2.440753 1.946435
v -0.125000 -0.058637 0.046762
vn 2.917193 -2.440753 1.946435
v 0.125000 -0.058637 0.046762
vn -2.917193 -2.812680 1.354516
v -0.125000 -0.067573 0.032541
vn 2.917193 -2.812680 1.354515
v 0.125000 -0.067573 0.032541
vn -2.917193 -3.043569 0.694675
v -0.125000 -0.073120 0.016689
vn 2.917193 -3.043569 0.694675
v 0.125000 -0.073120 0.016689
vn -2.917193 -3.121840 0.000000
v -0.125000 -0.075000 0.000000
vn 2.917193 -3.121840 -0.000000
v 0.125000 -0.075000 0.000000
vn -2.917193 -3.043569 -0.694675
v -0.125000 -0.073120 -0.016689
vn 2.917193 -3.043569 -0.694675
v 0.125000 -0.073120 -0.016689
vn -2.917193 -2.812680 -1.354515
v -0.125000 -0.067573 -0.032541
vn 2.917193 -2.812680 -1.354516
v 0.125000 -0.067573 -0.032541
vn -2.917193 -2.440753 -1.946435
v -0.125000 -0.058637 -0.046762
vn 2.917193 -2.440753 -1.946435
v 0.125000 -0.058637 -0.046762
vn -2.917193 -1.946435 -2.440753
v -0.125000 -0.046762 -0.058637
vn 2.917193 -1.946435 -2.440753
v 0.125000 -0.046762 -0.058637
vn -2.917193 -1.354516 -2.812680
v -0.125000 -0.032541 -0.067573
vn 2.917193 -1.354515 -2.812680
v 0.125000 -0.032541 -0.067573
vn 6.283190 0.000000 0.000000
v 0.125000 0.000000 0.000000
vn -6.168530 0.027640 0.023635
v -0.125000 0.075000 0.000000
vn -6.283190 0.000000 0.000000
v -0.125000 0.000000 0.000000
vn 3.082001 2.971358 -0.544337
v 0.123101 0.125000 -0.021706
vn 3.983506 -2.130826 -3.489511
v 0.095756 0.020000 -0.080348
vn -3.983506 -2.130826 3.489511
v -0.095756 0.020000 0.080348
vn 3.082947 2.989352 0.545868
v 0.123101 0.125000 0.021706
vn 2.941041 2.983880 1.072711
v 0.117462 0.125000 0.042753
vn 2.710720 2.980386 1.565624
v 0.108253 0.125000 0.062500
vn 3.979408 -2.139669 3.494998
v 0.095756 0.020000 0.080348
vn 2.395099 2.973043 2.015015
v 0.095756 0.125000 0.080348
vn -2.397357 2.968075 2.011810
v -0.095756 0.125000 0.080348
vn -2.710106 2.969848 1.565323
v -0.108253 0.125000 0.062500
vn -2.940744 2.971156 1.071007
v -0.117462 0.125000 0.042753
vn -3.082001 2.971358 0.544337
v -0.123101 0.125000 0.021706
vn -3.130356 2.979622 0.008828
v -0.125000 0.125000 0.000000
vn -3.082946 2.989352 -0.545868
v -0.123101 0.125000 -0.021706
vn -2.941041 2.983880 -1.072711
v -0.117462 0.125000 -0.042753
vn -2.710720 2.980386 -1.565624
v -0.108253 0.125000 -0.062500
vn -3.979408 -2.139669 -3.494998
v -0.095756 0.020000 -0.080348
vn -2.395099 2.973043 -2.015015
v -0.095756 0.125000 -0.080348
vn 2.397357 2.968075 -2.011810
v 0.095756 0.125000 -0.080348
vn 2.710106 2.969848 -1.565323
v 0.108253 0.125000 -0.062500
vn 2.940744 2.971156 -1.071007
v 0.117462 0.125000 -0.042753
vn 3.130356 2.979622 -0.008828
v 0.125000 0.125000 0.000000
vn 3.251337 0.027640 -0.023635
v 0.125000 0.075000 0.000000
vn 2.011692 2.967060 2.397442
v 0.080348 0.125000 0.095756
vn 3.382022 -2.124489 4.036076
v 0.080348 0.020000 0.095756
vn 1.564819 2.967060 2.710346
v 0.062500 0.125000 0.108253
vn 2.629898 -2.130158 4.555118
v 0.062500 0.020000 0.108253
vn 1.070399 2.967060 2.940898
v 0.042753 0.125000 0.117462
vn 1.798956 -2.130158 4.942592
v 0.042753 0.020000 0.117462
vn 0.543456 2.967060 3.082092
v 0.021706 0.125000 0.123101
vn 0.913354 -2.130158 5.179888
v 0.021706 0.020000 0.123101
vn 0.000000 2.967059 3.129638
v 0.000000 0.125000 0.125000
vn -0.000000 0.000000 3.129638
v 0.000000 0.020000 0.125000
vn -0.543456 2.967060 3.082092
v -0.021706 0.125000 0.123101
vn -0.913354 -2.130158 5.179888
v -0.021706 0.020000 0.123101
vn -1.070399 2.967060 2.940898
v -0.042753 0.125000 0.117462
vn -1.798956 -2.130158 4.942592
v -0.042753 0.020000 0.117462
vn -1.564819 2.967060 2.710346
v -0.062500 0.125000 0.108253
vn -2.629898 -2.130158 4.555118
v -0.062500 0.020000 0.108253
vn -2.011693 2.967060 2.397442
v -0.080348 0.125000 0.095756
vn -3.380932 -2.130158 4.029238
v -0.080348 0.020000 0.095756
vn -2.011692 2.967060 -2.397442
v -0.080348 0.125000 -0.095756
vn -3.382022 -2.124489 -4.036076
v -0.080348 0.020000 -0.095756
vn -1.564819 2.967060 -2.710346
v -0.062500 0.125000 -0.108253
vn -2.629898 -2.130158 -4.555118
v -0.062500 0.020000 -0.108253
vn -1.070399 2.967060 -2.940898
v -0.042753 0.125000 -0.117462
vn -1.798956 -2.130158 -4.942592
v -0.042753 0.020000 -0.117462
vn -0.543456 2.967060 -3.082092
v -0.021706 0.125000 -0.123101
vn -0.913354 -2.130158 -5.179888
v -0.021706 0.020000 -0.123101
vn -0.000000 2.967059 -3.129638
v 0.000000 0.125000 -0.125000
vn 0.000000 0.000000 -3.129638
v 0.000000 0.020000 -0.125000
vn 0.543456 2.967060 -3.082092
v 0.021706 0.125000 -0.123101
vn 0.913354 -2.130158 -5.179888
v 0.021706 0.020000 -0.123101
vn 1.070399 2.967060 -2.940898
v 0.042753 0.125000 -0.117462
vn 1.798956 -2.130158 -4.942592
v 0.042753 0.020000 -0.117462
vn 1.564819 2.967060 -2.710346
v 0.062500 0.125000 -0.108253
vn 2.629898 -2.130158 -4.555118
v 0.062500 0.020000 -0.108253
vn 2.011693 2.967060 -2.397442
v 0.080348 0.125000 -0.095756
vn 3.380932 -2.130158 -4.029238
v 0.080348 0.020000 -0.095756
vn -1.422782 -5.297482 -1.784676
v -0.067493 0.000000 -0.080435
vn -0.400128 -5.271307 -2.269241
v -0.018233 0.000000 -0.103405
vn 0.000000 -5.271307 -2.304247
v 0.000000 0.000000 -0.105000
vn -0.788099 -5.271307 -2.165284
v -0.035912 0.000000 -0.098668
vn -1.152124 -5.271307 -1.995537
v -0.052500 0.000000 -0.090933
vn 0.400128 -5.271307 -2.269241
v 0.018233 0.000000 -0.103405
vn 0.788099 -5.271307 -2.165284
v 0.035912 0.000000 -0.098668
vn 1.152124 -5.271307 -1.995537
v 0.052500 0.000000 -0.090933
vn 1.462388 -5.274911 -1.778283
v 0.067493 0.000000 -0.080435
vn 1.152124 -5.271307 1.995537
v 0.052500 0.000000 0.090933
vn -0.400128 -5.271306 2.269241
v -0.018233 0.000000 0.103405
vn -0.788099 -5.271307 2.165284
v -0.035912 0.000000 0.098668
vn 0.788099 -5.271307 2.165284
v 0.035912 0.000000 0.098668
vn 0.400128 -5.271306 2.269241
v 0.018233 0.000000 0.103405
vn -0.000000 -5.271308 2.304247
v -0.000000 0.000000 0.105000
vn -1.152124 -5.271307 1.995537
v -0.052500 0.000000 0.090933
vn -1.462388 -5.274911 1.778283
v -0.067493 0.000000 0.080435
vn 1.422782 -5.297483 1.784676
v 0.067493 0.000000 0.080435
vn 0.000000 6.283183 0.000000
v 0.000000 0.125000 0.000000
vn 0.000000 -2.130158 -2.130158
v 0.000000 0.020000 -0.125000
vn -0.000000 -2.130158 2.130158
v -0.000000 0.020000 0.125000
# 207 vertices, 0 vertices normals

f 1//1 2//2 3//3
f 4//4 5//5 6//6
f 7//7 8//8 9//9
f 10//10 11//11 12//12
f 13//13 14//14 15//15
f 16//16 17//17 18//18
f 19//19 20//20 21//21
f 19//19 21//21 22//22
f 23//23 24//24 25//25
f 25//25 24//24 26//26
f 25//25 26//26 19//19
f 19//19 26//26 27//27
f 19//19 27//27 20//20
f 18//18 17//17 28//28
f 16//16 18//18 29//29
f 29//29 18//18 30//30
f 29//29 30//30 31//31
f 31//31 30//30 32//32
f 32//32 30//30 33//33
f 32//32 33//33 34//34
f 15//15 14//14 33//33
f 33//33 14//14 35//35
f 33//33 35//35 34//34
f 36//36 37//37 38//38
f 36//36 39//39 37//37
f 37//37 39//39 40//40
f 37//37 40//40 15//15
f 15//15 40//40 41//41
f 15//15 41//41 13//13
f 11//11 42//42 38//38
f 38//38 42//42 43//43
f 38//38 43//43 36//36
f 44//44 45//45 46//46
f 46//46 45//45 47//47
f 46//46 47//47 12//12
f 12//12 47//47 48//48
f 12//12 48//48 10//10
f 44//44 46//46 49//49
f 49//49 46//46 50//50
f 49//49 50//50 51//51
f 52//52 53//53 50//50
f 50//50 53//53 54//54
f 50//50 54//54 51//51
f 55//55 56//56 52//52
f 52//52 56//56 57//57
f 52//52 57//57 53//53
f 58//58 59//59 60//60
f 60//60 59//59 61//61
f 60//60 61//61 55//55
f 55//55 61//61 62//62
f 55//55 62//62 56//56
f 9//9 8//8 63//63
f 7//7 9//9 64//64
f 64//64 9//9 65//65
f 64//64 65//65 66//66
f 66//66 65//65 67//67
f 67//67 65//65 68//68
f 67//67 68//68 69//69
f 6//6 5//5 68//68
f 68//68 5//5 70//70
f 68//68 70//70 69//69
f 71//71 72//72 73//73
f 71//71 74//74 72//72
f 72//72 74//74 75//75
f 72//72 75//75 6//6
f 6//6 75//75 76//76
f 6//6 76//76 4//4
f 2//2 77//77 73//73
f 73//73 77//77 78//78
f 73//73 78//78 71//71
f 79//79 80//80 81//81
f 81//81 80//80 82//82
f 81//81 82//82 3//3
f 3//3 82//82 83//83
f 3//3 83//83 1//1
f 79//79 81//81 84//84
f 84//84 81//81 85//85
f 84//84 85//85 86//86
f 87//87 88//88 85//85
f 85//85 88//88 89//89
f 85//85 89//89 86//86
f 21//21 90//90 22//22
f 22//22 90//90 91//91
f 22//22 91//91 87//87
f 87//87 91//91 92//92
f 87//87 92//92 88//88
f 8//8 93//93 63//63
f 63//63 93//93 94//94
f 63//63 94//94 95//95
f 58//58 60//60 96//96
f 96//96 60//60 97//97
f 96//96 97//97 98//98
f 98//98 97//97 99//99
f 98//98 99//99 94//94
f 17//17 100//100 28//28
f 28//28 100//100 101//101
f 28//28 101//101 102//102
f 94//94 99//99 95//95
f 95//95 99//99 103//103
f 95//95 103//103 104//104
f 104//104 103//103 105//105
f 104//104 105//105 106//106
f 106//106 105//105 107//107
f 106//106 107//107 108//108
f 108//108 107//107 109//109
f 108//108 109//109 110//110
f 110//110 109//109 111//111
f 110//110 111//111 112//112
f 112//112 111//111 113//113
f 112//112 113//113 114//114
f 114//114 113//113 115//115
f 114//114 115//115 116//116
f 116//116 115//115 117//117
f 116//116 117//117 118//118
f 118//118 117//117 119//119
f 118//118 119//119 120//120
f 120//120 119//119 121//121
f 120//120 121//121 122//122
f 122//122 121//121 123//123
f 122//122 123//123 124//124
f 124//124 123//123 102//102
f 124//124 102//102 23//23
f 23//23 102//102 101//101
f 23//23 101//101 24//24
f 2//2 73//73 125//125
f 85//85 81//81 125//125
f 125//125 81//81 3//3
f 125//125 3//3 2//2
f 19//19 22//22 125//125
f 125//125 22//22 87//87
f 125//125 87//87 85//85
f 124//124 23//23 125//125
f 125//125 23//23 25//25
f 125//125 25//25 19//19
f 118//118 120//120 125//125
f 125//125 120//120 122//122
f 125//125 122//122 124//124
f 112//112 114//114 125//125
f 125//125 114//114 116//116
f 125//125 116//116 118//118
f 106//106 108//108 125//125
f 125//125 108//108 110//110
f 125//125 110//110 112//112
f 63//63 95//95 125//125
f 125//125 95//95 104//104
f 125//125 104//104 106//106
f 68//68 65//65 125//125
f 125//125 65//65 9//9
f 125//125 9//9 63//63
f 73//73 72//72 125//125
f 125//125 72//72 6//6
f 125//125 6//6 68//68
f 126//126 38//38 127//127
f 50//50 46//46 127//127
f 127//127 46//46 12//12
f 127//127 12//12 126//126
f 60//60 55//55 127//127
f 127//127 55//55 52//52
f 127//127 52//52 50//50
f 103//103 99//99 127//127
f 127//127 99//99 97//97
f 127//127 97//97 60//60
f 109//109 107//107 127//127
f 127//127 107//107 105//105
f 127//127 105//105 103//103
f 115//115 113//113 127//127
f 127//127 113//113 111//111
f 127//127 111//111 109//109
f 121//121 119//119 127//127
f 127//127 119//119 117//117
f 127//127 117//117 115//115
f 28//28 102//102 127//127
f 127//127 102//102 123//123
f 127//127 123//123 121//121
f 33//33 30//30 127//127
f 127//127 30//30 18//18
f 127//127 18//18 28//28
f 38//38 37//37 127//127
f 127//127 37//37 15//15
f 127//127 15//15 33//33
f 83//83 82//82 128//128
f 21//21 20//20 129//129
f 61//61 59//59 130//130
f 71//71 131//131 74//74
f 74//74 131//131 132//132
f 74//74 132//132 75//75
f 75//75 132//132 76//76
f 133//133 67//67 69//69
f 69//69 70//70 133//133
f 133//133 70//70 5//5
f 133//133 5//5 132//132
f 132//132 5//5 4//4
f 132//132 4//4 76//76
f 134//134 7//7 64//64
f 67//67 133//133 66//66
f 66//66 133//133 135//135
f 66//66 135//135 64//64
f 62//62 136//136 56//56
f 56//56 136//136 137//137
f 56//56 137//137 57//57
f 57//57 137//137 53//53
f 44//44 49//49 138//138
f 138//138 49//49 51//51
f 138//138 51//51 137//137
f 137//137 51//51 54//54
f 137//137 54//54 53//53
f 10//10 48//48 139//139
f 139//139 48//48 47//47
f 139//139 47//47 138//138
f 138//138 47//47 45//45
f 138//138 45//45 44//44
f 10//10 139//139 126//126
f 126//126 139//139 140//140
f 126//126 140//140 42//42
f 42//42 140//140 141//141
f 42//42 141//141 43//43
f 41//41 40//40 142//142
f 142//142 40//40 39//39
f 142//142 39//39 141//141
f 141//141 39//39 36//36
f 141//141 36//36 43//43
f 143//143 32//32 34//34
f 34//34 35//35 143//143
f 143//143 35//35 14//14
f 143//143 14//14 142//142
f 142//142 14//14 13//13
f 142//142 13//13 41//41
f 144//144 16//16 29//29
f 32//32 143//143 31//31
f 31//31 143//143 145//145
f 31//31 145//145 29//29
f 90//90 146//146 91//91
f 91//91 146//146 147//147
f 91//91 147//147 92//92
f 92//92 147//147 88//88
f 79//79 84//84 148//148
f 148//148 84//84 86//86
f 148//148 86//86 147//147
f 147//147 86//86 89//89
f 147//147 89//89 88//88
f 128//128 82//82 148//148
f 148//148 82//82 80//80
f 148//148 80//80 79//79
f 71//71 78//78 131//131
f 131//131 78//78 77//77
f 131//131 77//77 149//149
f 149//149 77//77 150//150
f 149//149 150//150 128//128
f 128//128 150//150 1//1
f 128//128 1//1 83//83
f 64//64 135//135 134//134
f 134//134 135//135 151//151
f 134//134 151//151 152//152
f 152//152 151//151 153//153
f 152//152 153//153 154//154
f 154//154 153//153 155//155
f 154//154 155//155 156//156
f 156//156 155//155 157//157
f 156//156 157//157 158//158
f 158//158 157//157 159//159
f 158//158 159//159 160//160
f 160//160 159//159 161//161
f 160//160 161//161 162//162
f 162//162 161//161 163//163
f 162//162 163//163 164//164
f 164//164 163//163 165//165
f 164//164 165//165 166//166
f 166//166 165//165 167//167
f 166//166 167//167 168//168
f 168//168 167//167 136//136
f 168//168 136//136 130//130
f 130//130 136//136 62//62
f 130//130 62//62 61//61
f 29//29 145//145 144//144
f 144//144 145//145 169//169
f 144//144 169//169 170//170
f 170//170 169//169 171//171
f 170//170 171//171 172//172
f 172//172 171//171 173//173
f 172//172 173//173 174//174
f 174//174 173//173 175//175
f 174//174 175//175 176//176
f 176//176 175//175 177//177
f 176//176 177//177 178//178
f 178//178 177//177 179//179
f 178//178 179//179 180//180
f 180//180 179//179 181//181
f 180//180 181//181 182//182
f 182//182 181//181 183//183
f 182//182 183//183 184//184
f 184//184 183//183 185//185
f 184//184 185//185 186//186
f 186//186 185//185 146//146
f 186//186 146//146 129//129
f 129//129 146//146 90//90
f 129//129 90//90 21//21
f 24//24 101//101 187//187
f 188//188 189//189 190//190
f 190//190 189//189 191//191
f 191//191 189//189 187//187
f 187//187 189//189 192//192
f 187//187 192//192 193//193
f 193//193 194//194 187//187
f 187//187 194//194 195//195
f 187//187 195//195 24//24
f 196//196 197//197 198//198
f 196//196 199//199 197//197
f 197//197 199//199 200//200
f 197//197 200//200 201//201
f 198//198 202//202 196//196
f 196//196 202//202 203//203
f 196//196 203//203 204//204
f 204//204 203//203 98//98
f 204//204 98//98 94//94
f 163//163 161//161 205//205
f 205//205 161//161 159//159
f 205//205 159//159 157//157
f 136//136 167//167 205//205
f 205//205 167//167 165//165
f 205//205 165//165 163//163
f 139//139 138//138 205//205
f 205//205 138//138 137//137
f 205//205 137//137 136//136
f 142//142 141//141 205//205
f 205//205 141//141 140//140
f 205//205 140//140 139//139
f 169//169 145//145 205//205
f 205//205 145//145 143//143
f 205//205 143//143 142//142
f 175//175 173//173 205//205
f 205//205 173//173 171//171
f 205//205 171//171 169//169
f 181//181 179//179 205//205
f 205//205 179//179 177//177
f 205//205 177//177 175//175
f 146//146 185//185 205//205
f 205//205 185//185 183//183
f 205//205 183//183 181//181
f 128//128 148//148 205//205
f 205//205 148//148 147//147
f 205//205 147//147 146//146
f 132//132 131//131 205//205
f 205//205 131//131 149//149
f 205//205 149//149 128//128
f 151//151 135//135 205//205
f 205//205 135//135 133//133
f 205//205 133//133 132//132
f 157//157 155//155 205//205
f 205//205 155//155 153//153
f 205//205 153//153 151//151
f 26//26 24//24 195//195
f 170//170 100//100 144//144
f 144//144 100//100 17//17
f 144//144 17//17 16//16
f 20//20 27//27 129//129
f 129//129 27//27 26//26
f 129//129 26//26 186//186
f 26//26 195//195 186//186
f 186//186 195//195 194//194
f 186//186 194//194 184//184
f 184//184 194//194 193//193
f 184//184 193//193 182//182
f 182//182 193//193 192//192
f 182//182 192//192 180//180
f 180//180 192//192 189//189
f 180//180 189//189 206//206
f 206//206 189//189 188//188
f 206//206 188//188 176//176
f 176//176 188//188 190//190
f 176//176 190//190 174//174
f 174//174 190//190 191//191
f 174//174 191//191 172//172
f 172//172 191//191 187//187
f 172//172 187//187 170//170
f 170//170 187//187 101//101
f 170//170 101//101 100//100
f 96//96 98//98 203//203
f 152//152 93//93 134//134
f 134//134 93//93 8//8
f 134//134 8//8 7//7
f 59//59 58//58 130//130
f 130//130 58//58 96//96
f 130//130 96//96 168//168
f 96//96 203//203 168//168
f 168//168 203//203 202//202
f 168//168 202//202 166//166
f 166//166 202//202 198//198
f 166//166 198//198 164//164
f 164//164 198//198 197//197
f 164//164 197//197 162//162
f 162//162 197//197 201//201
f 162//162 201//201 207//207
f 207//207 201//201 200//200
f 207//207 200//200 158//158
f 158//158 200//200 199//199
f 158//158 199//199 156//156
f 156//156 199//199 196//196
f 156//156 196//196 154//154
f 154//154 196//196 204//204
f 154//154 204//204 152//152
f 152//152 204//204 94//94
f 152//152 94//94 93//93
# 402 faces, 0 coords texture

# End of File
