####
#
# OBJ File Generated by Meshlab
#
####
# Object TH3_z.obj
#
# Vertices: 215
# Faces: 422
#
####
vn 3.643954 -1.325750 4.671911
v 6.562990 -2.382768 47.242699
vn 3.001510 -2.518532 4.645403
v 5.352630 -4.479268 47.242599
vn 4.878195 -1.847157 3.037892
v 8.872469 -3.223368 44.399899
vn 3.531778 0.367565 4.782569
v 6.609169 0.001134 47.535801
vn 0.953062 -1.321812 5.562089
v 2.846790 -2.376568 49.092300
vn 1.082282 0.903184 5.793335
v 2.542210 1.397902 49.166199
vn 5.970178 1.091984 0.898359
v 12.342199 2.621740 3.915280
vn 5.446326 2.683794 0.644117
v 11.527899 5.127820 3.915270
vn 6.063359 0.301742 0.824260
v 11.016299 0.001131 12.128600
vn 5.500018 2.588256 0.008098
v 9.958089 4.428921 37.154099
vn 5.984497 1.179090 0.027196
v 10.661399 2.264482 37.154099
vn 6.119314 0.420976 -0.352603
v 10.153999 0.001132 28.836300
vn 5.153294 3.235838 1.003225
v 8.875569 6.440061 12.121900
vn 6.101689 0.451227 0.317039
v 10.192299 0.001132 20.462099
vn 5.226050 3.232677 0.320267
v 8.195269 5.945821 20.458700
vn 5.161247 3.329243 -0.228655
v 8.177799 5.933082 28.837900
vn 4.379014 4.261197 0.709523
v 8.447139 9.368060 3.915280
vn 3.606726 4.990105 0.959897
v 6.452030 8.863551 12.121900
vn 3.656398 5.032545 0.322541
v 5.957839 8.183301 20.458700
vn 3.677874 5.010916 -0.186785
v 5.945049 8.165761 28.837900
vn 4.100859 4.504412 -0.342476
v 7.297319 8.091102 37.154202
vn 3.033255 5.348561 0.921729
v 6.315350 10.916900 3.915280
vn 1.478275 5.894815 1.005852
v 3.398320 10.419501 12.121900
vn 1.876908 5.851772 0.890098
v 3.908080 11.988700 3.915270
vn 1.429651 5.970322 0.318081
v 3.138460 9.619851 20.458700
vn 1.454445 5.962157 -0.254728
v 3.131750 9.599231 28.837900
vn 1.818403 5.802732 -0.367175
v 3.377120 10.354502 37.154202
vn 0.658711 6.091373 0.923658
v 1.330670 12.536500 3.915280
vn -1.462289 5.898117 1.026769
v -3.372080 10.419501 12.121900
vn -1.429650 5.970322 0.318079
v -3.112220 9.619851 20.458700
vn -1.505366 5.943256 -0.190813
v -3.105500 9.599231 28.837900
vn -0.609834 6.097336 0.993480
v -1.304430 12.536500 3.915280
vn -0.823505 5.939104 -0.386531
v -1.124750 10.827601 37.154202
vn -1.941390 5.838137 0.866581
v -3.881840 11.988700 3.915280
vn -3.011360 5.369679 0.823282
v -6.289110 10.916900 3.915280
vn -3.685019 4.933023 0.897815
v -6.425789 8.863551 12.121900
vn -3.656404 5.032538 0.322565
v -5.931600 8.183301 20.458700
vn -3.589579 5.077981 -0.214126
v -5.918799 8.165761 28.837900
vn -3.830469 4.677123 -0.264522
v -7.271060 8.091102 37.154202
vn -4.303847 4.312158 1.003216
v -8.420899 9.368060 3.915280
vn -5.502687 2.466663 1.035794
v -11.501599 5.127820 3.915280
vn -5.104654 3.318032 0.849400
v -8.849329 6.440061 12.121900
vn -5.226435 3.232242 0.316252
v -8.169019 5.945821 20.458700
vn -5.213430 3.266394 -0.361541
v -8.151559 5.933082 28.837900
vn -5.526808 2.659126 -0.140054
v -9.931839 4.428921 37.154099
vn -6.054196 0.415982 0.996485
v -10.990099 0.001131 12.128600
vn -6.101551 0.452424 0.318449
v -10.165999 0.001132 20.462099
vn -6.111952 0.326863 -0.205591
v -10.127699 0.001132 28.836300
vn -6.104833 0.234566 0.796858
v -12.591299 0.001130 3.915350
vn -6.042008 1.029936 -0.276768
v -10.635099 2.264482 37.154099
vn 1.314847 -3.311331 4.710013
v 3.498250 -6.035268 47.242699
vn 3.976683 -3.336890 3.053544
v 7.235240 -6.058968 44.399899
vn 5.018154 0.345363 2.765769
v 9.679699 -0.008856 44.256401
vn 5.532923 -1.967821 1.233065
v 10.147999 -3.687668 40.895802
vn 5.829650 0.383550 1.229246
v 10.657399 -0.005539 41.136101
vn 5.817276 0.679461 -0.653931
v 12.917099 1.094790 -0.143839
vn 3.888806 2.809895 -3.591537
v 8.306489 6.026619 -7.261751
vn 4.667309 1.257240 -3.420602
v 9.762569 3.168920 -7.261750
vn 1.987549 2.209983 -5.150824
v 4.715469 5.683280 -9.958290
vn 2.887807 3.886229 -3.651655
v 6.038589 8.294500 -7.261681
vn 2.595622 -4.495756 3.053482
v 4.727059 -8.163668 44.399799
vn 4.521951 -3.764946 1.174576
v 8.275099 -6.931468 40.895802
vn 3.774767 4.613335 -0.411012
v 7.642449 10.502000 0.009076
vn 1.155375 4.672548 -3.581474
v 3.180890 9.750570 -7.261681
vn 3.507554 4.399582 -2.056688
v 7.167059 9.847770 -3.834831
vn 1.623343 5.367955 -2.189180
v 3.774220 11.576500 -3.834831
vn 1.838967 5.756208 -0.365482
v 4.024109 12.345700 0.009143
vn -1.205161 4.533847 -3.741496
v -3.154720 9.750570 -7.261751
vn -1.043015 3.246935 -4.928983
v -2.272180 7.034460 -9.958720
vn 0.138735 5.428818 -2.426003
v 0.013119 12.172200 -3.834831
vn 0.023496 6.046132 -0.387364
v 0.013118 12.981000 0.009144
vn -1.756122 5.404884 -2.099248
v -3.747980 11.576500 -3.834831
vn -1.895723 5.737770 -0.365438
v -3.997870 12.345700 0.009147
vn -2.616534 2.293005 -4.965275
v -5.641699 4.785560 -9.956840
vn -0.936691 1.027985 -5.756411
v -3.113070 2.272449 -11.679500
vn -2.727041 3.871350 -3.781424
v -6.012420 8.294500 -7.261751
vn -3.340378 4.597621 -2.099206
v -7.140890 9.847770 -3.834900
vn -3.534854 4.905279 -0.387356
v -7.616210 10.502000 0.009079
vn -3.918777 2.806616 -3.713833
v -8.280249 6.026619 -7.261751
vn -4.597636 3.340443 -2.099249
v -9.833489 7.155130 -3.834820
vn -4.885474 3.549590 -0.318638
v -10.487799 7.630490 0.009079
vn -3.398772 0.846834 -5.017714
v -6.828839 2.313770 -9.958100
vn -4.556643 1.169886 -3.723228
v -9.736329 3.168920 -7.261750
vn -5.407232 1.614351 -2.106093
v -11.562399 3.762210 -3.834820
vn -5.759214 1.719557 -0.342026
v -12.331499 4.012120 0.009077
vn -5.742758 0.060441 -2.095501
v -12.085499 0.036929 -3.513460
vn -6.143725 -0.010665 -0.440536
v -12.759299 -0.068198 -0.007477
vn 4.653784 3.397346 1.237373
v 8.275099 6.933762 40.895802
vn 4.144717 2.947156 2.988973
v 7.235240 6.061252 44.399899
vn 3.069690 2.126936 4.598247
v 5.352630 4.481492 47.242599
vn 2.942779 5.097020 1.176994
v 5.405809 9.341442 40.895802
vn 2.595628 4.495740 3.053523
v 4.727059 8.165912 44.399799
vn 1.503120 3.209557 4.746885
v 3.498250 6.037502 47.242699
vn 0.999523 5.798603 1.174589
v 1.885970 10.622502 40.895802
vn 0.761420 4.919097 3.246819
v 1.650220 9.285772 44.399899
vn -1.165399 5.739365 1.035256
v -1.859710 10.622502 40.895802
vn -0.798075 5.050182 3.119365
v -1.623970 9.285772 44.399899
vn -0.476530 3.527357 4.617446
v -1.197230 6.865442 47.242699
vn -1.167148 1.226273 5.592954
v -2.820540 2.378842 49.092300
vn -2.758864 5.143540 0.852544
v -5.379550 9.341442 40.895802
vn -2.578673 4.257611 3.246846
v -4.700880 8.165912 44.399899
vn -4.604950 3.542785 1.224836
v -8.248849 6.933762 40.895802
vn -3.960754 3.198161 3.044116
v -7.208980 6.061252 44.399899
vn -2.840187 2.563123 4.524141
v -5.326379 4.481492 47.242599
vn -5.768523 0.992634 1.084457
v -10.610600 1.655432 40.893200
vn -4.822258 0.685033 2.821618
v -9.637319 1.118842 44.529900
vn -3.291786 0.011681 4.950859
v -6.582910 0.001134 47.535801
vn 5.520175 -2.757654 -0.214788
v 9.958089 -4.426669 37.154099
vn 6.085312 -0.997590 -0.157019
v 10.661399 -2.262268 37.154099
vn -6.038405 -1.210461 0.815395
v -12.315899 -2.619470 3.915280
vn -5.846681 -1.946125 0.971062
v -10.405199 -3.383970 12.121900
vn -5.903776 -1.983444 0.325262
v -9.605579 -3.124169 20.458700
vn -5.928285 -1.890181 -0.244547
v -9.584999 -3.117469 28.837900
vn -6.073844 -0.914878 -0.196425
v -10.635099 -2.262268 37.154099
vn -5.480739 -2.721096 0.919969
v -11.501599 -5.125570 3.915280
vn -5.488237 -2.794361 -0.260211
v -9.931839 -4.426669 37.154099
vn -4.983487 -3.620649 0.954527
v -8.849329 -6.437769 12.121900
vn -5.032602 -3.656343 0.322526
v -8.169019 -5.943569 20.458700
vn -4.982490 -3.722709 -0.177700
v -8.151559 -5.930869 28.837900
vn -4.281599 -4.371612 0.919930
v -8.420899 -9.365770 3.915281
vn -3.606783 -4.990076 0.959876
v -6.425789 -8.861269 12.121900
vn -3.656376 -5.032551 0.322551
v -5.931600 -8.181069 20.458700
vn -3.677860 -5.010942 -0.186779
v -5.918799 -8.163469 28.837900
vn -4.100832 -4.504419 -0.342461
v -7.271060 -8.088868 37.154202
vn -3.033223 -5.348541 0.921787
v -6.289110 -10.914700 3.915281
vn -1.478331 -5.894786 1.005844
v -3.372080 -10.417299 12.121900
vn -1.876899 -5.851805 0.890125
v -3.881840 -11.986400 3.915281
vn -1.429620 -5.970339 0.318114
v -3.112220 -9.617569 20.458700
vn -1.506603 -5.954898 -0.317648
v -3.105500 -9.596969 28.837900
vn -1.884648 -5.804470 -0.297902
v -3.350860 -10.352198 37.154202
vn -0.658824 -6.091347 0.923540
v -1.304430 -12.534300 3.915281
vn 0.609891 -6.097320 0.993443
v 1.330670 -12.534300 3.915281
vn 0.850004 -5.977588 -0.326693
v 1.151000 -10.825398 37.154202
vn 1.462339 -5.898085 1.026798
v 3.398320 -10.417299 12.121900
vn 1.429623 -5.970339 0.318083
v 3.138460 -9.617569 20.458700
vn 1.549846 -5.938267 -0.231096
v 3.131750 -9.596969 28.837900
vn 1.941438 -5.838161 0.866601
v 3.908080 -11.986400 3.915281
vn 3.011321 -5.369671 0.823263
v 6.315350 -10.914700 3.915281
vn 3.685069 -4.932994 0.897832
v 6.452030 -8.861269 12.121900
vn 3.656375 -5.032551 0.322555
v 5.957839 -8.181069 20.458700
vn 3.589574 -5.077998 -0.214134
v 5.945049 -8.163469 28.837900
vn 3.859986 -4.662404 -0.283748
v 7.297319 -8.088868 37.154202
vn 4.303898 -4.312136 1.003237
v 8.447139 -9.365770 3.915281
vn 5.444715 -2.756237 0.963200
v 11.527899 -5.125570 3.915270
vn 4.934407 -3.704752 0.798725
v 8.875569 -6.437769 12.121900
vn 5.032591 -3.656352 0.322545
v 8.195269 -5.943569 20.458700
vn 5.035184 -3.658355 -0.312355
v 8.177799 -5.930869 28.837900
vn 5.875986 -1.859511 0.888377
v 10.431499 -3.383970 12.121900
vn 5.904178 -1.982965 0.319825
v 9.631829 -3.124169 20.458700
vn 5.908846 -1.969805 -0.324028
v 9.611249 -3.117469 28.837900
vn 6.022301 -0.928998 0.948174
v 12.342199 -2.619470 3.915280
vn -1.380617 -0.686762 -5.731657
v -3.661930 -1.192971 -11.679500
vn -3.538005 -0.420578 -5.019486
v -6.965720 -1.299690 -9.956520
vn -4.553373 -1.124331 -3.776146
v -9.736329 -3.166670 -7.261740
vn -5.333516 -1.591917 -2.073872
v -11.642699 -3.811340 -3.895890
vn -5.772756 -1.756646 -0.365719
v -12.331499 -4.009870 0.009077
vn -2.640624 -2.027745 -5.025063
v -5.969779 -4.345671 -9.958720
vn -3.890098 -2.857973 -3.723778
v -8.280249 -6.024371 -7.261750
vn -4.577250 -3.404141 -2.081688
v -9.833489 -7.152870 -3.834820
vn -4.885484 -3.549558 -0.318635
v -10.487799 -7.628270 0.009080
vn -3.015980 -3.748709 -3.782437
v -6.012420 -8.292270 -7.261750
vn -3.381546 -4.597282 -2.064624
v -7.140890 -9.845470 -3.834899
vn -3.556874 -4.895590 -0.406122
v -7.616210 -10.499800 0.009080
vn -1.730260 -5.444878 -2.053646
v -3.747980 -11.574300 -3.834820
vn -1.838889 -5.756212 -0.365412
v -3.997870 -12.343500 0.009151
vn 0.000036 -5.683002 -2.099219
v 0.013119 -12.170000 -3.834830
vn 0.040652 -4.863520 -3.679820
v 0.013118 -10.250100 -7.261750
vn -0.023508 -6.046187 -0.387347
v 0.013119 -12.978700 0.009147
vn 1.058899 -0.678047 -5.726076
v 3.139310 -2.270170 -11.679500
vn -0.151960 -3.128839 -5.147024
v 0.013119 -7.394170 -9.958650
vn 1.251665 -3.134304 -4.990303
v 2.298420 -7.032170 -9.958730
vn 1.541850 -4.514568 -3.748796
v 3.180890 -9.748270 -7.261680
vn 1.756158 -5.404809 -2.099277
v 3.774220 -11.574300 -3.834830
vn 1.895699 -5.737744 -0.365429
v 4.024109 -12.343500 0.009147
vn 2.684467 -2.247828 -4.978172
v 5.996019 -4.345671 -9.958730
vn 2.676208 -3.822076 -3.833153
v 6.038589 -8.292270 -7.261680
vn 3.340417 -4.597656 -2.099268
v 7.167059 -9.845470 -3.834830
vn 3.534836 -4.905246 -0.387397
v 7.642449 -10.499800 0.009077
vn 3.912368 -2.842570 -3.701085
v 8.306489 -6.024371 -7.261750
vn 4.597603 -3.340458 -2.099263
v 9.859719 -7.152870 -3.834830
vn 4.885488 -3.549586 -0.318654
v 10.513999 -7.628270 0.009075
vn 3.371619 -0.837546 -4.977200
v 7.046500 -2.284170 -9.958720
vn 4.660064 -1.132651 -3.602629
v 9.762569 -3.166670 -7.261750
vn 5.392437 -1.421530 -2.141695
v 11.588599 -3.759970 -3.834830
vn 5.762494 -1.746296 -0.416147
v 12.357699 -4.009870 0.009074
vn -5.548460 -1.885386 1.197287
v -10.121699 -3.687668 40.895802
vn -4.859344 -1.803728 3.077819
v -8.846219 -3.223368 44.399899
vn -3.662215 -1.202221 4.646023
v -6.536739 -2.382768 47.242699
vn -1.532672 -0.687369 5.524790
v -3.462870 -1.264018 49.092300
vn -4.521961 -3.764931 1.174568
v -8.248849 -6.931468 40.895802
vn -3.976723 -3.336859 3.053559
v -7.208980 -6.058968 44.399899
vn -2.913420 -2.495886 4.685120
v -5.326379 -4.479268 47.242599
vn -2.942839 -5.097021 1.176940
v -5.379560 -9.339169 40.895802
vn -2.595621 -4.495662 3.053496
v -4.700880 -8.163668 44.399899
vn -1.293381 -3.186615 4.758728
v -3.471990 -6.035268 47.242699
vn -0.999547 -5.798568 1.174578
v -1.859710 -10.620298 40.895802
vn -0.761335 -4.919127 3.246900
v -1.623970 -9.283468 44.399899
vn 1.087679 -5.772365 1.122677
v 1.885970 -10.620298 40.895802
vn 0.761397 -4.919111 3.246877
v 1.650230 -9.283468 44.399899
vn 2.855864 -5.123612 0.995208
v 5.405809 -9.339169 40.895802
vn -1.479894 -2.811914 -5.296172
v -3.199070 -6.568491 -9.783740
vn -1.688278 -4.207470 -3.834403
v -3.783350 -9.397950 -7.685130
vn 4.954121 2.930651 -1.914279
v 9.975859 6.396290 -3.987940
vn 5.330830 3.000365 -0.601307
v 10.945699 6.098010 -0.287483
vn 5.653235 0.776344 -2.327967
v 11.566699 1.440500 -3.961560
vn 0.448167 3.221051 -4.710194
v 1.441900 7.540370 -9.955090
vn 3.087540 0.878530 -4.950282
v 7.229859 1.884770 -9.952640
vn 1.570797 -1.570796 -1.570796
v 1.000000 -1.000000 -1.000000
vn 1.570796 -1.570796 1.570796
v 1.000000 -1.000000 1.000000
vn -1.570796 -1.570796 1.570796
v -1.000000 -1.000000 1.000000
vn -1.570796 -1.570796 -1.570797
v -1.000000 -1.000000 -1.000000
vn 1.570797 1.570796 -1.570795
v 1.000000 1.000000 -1.000000
vn -1.570796 1.570796 -1.570796
v -1.000000 1.000000 -1.000000
vn -1.570797 1.570796 1.570796
v -1.000000 1.000000 1.000000
vn 1.570795 1.570796 1.570797
v 0.999999 1.000000 1.000001
# 215 vertices, 0 vertices normals

f 1//1 2//2 3//3
f 1//1 4//4 5//5
f 6//6 5//5 4//4
f 7//7 8//8 9//9
f 10//10 11//11 12//12
f 9//9 13//13 14//14
f 13//13 9//9 8//8
f 14//14 15//15 12//12
f 15//15 14//14 13//13
f 12//12 16//16 10//10
f 16//16 12//12 15//15
f 8//8 17//17 13//13
f 18//18 13//13 17//17
f 13//13 18//18 15//15
f 19//19 15//15 18//18
f 15//15 19//19 16//16
f 20//20 16//16 19//19
f 20//20 21//21 10//10
f 16//16 20//20 10//10
f 17//17 22//22 18//18
f 18//18 23//23 19//19
f 18//18 22//22 24//24
f 23//23 18//18 24//24
f 19//19 25//25 20//20
f 25//25 19//19 23//23
f 20//20 26//26 21//21
f 26//26 20//20 25//25
f 27//27 21//21 26//26
f 24//24 28//28 23//23
f 29//29 23//23 28//28
f 23//23 29//29 25//25
f 25//25 30//30 26//26
f 30//30 25//25 29//29
f 26//26 31//31 27//27
f 31//31 26//26 30//30
f 28//28 32//32 29//29
f 33//33 27//27 31//31
f 29//29 32//32 34//34
f 34//34 35//35 29//29
f 29//29 36//36 30//30
f 36//36 29//29 35//35
f 37//37 30//30 36//36
f 30//30 37//37 31//31
f 38//38 31//31 37//37
f 38//38 39//39 33//33
f 31//31 38//38 33//33
f 35//35 40//40 36//36
f 36//36 40//40 41//41
f 42//42 36//36 41//41
f 36//36 42//42 37//37
f 43//43 37//37 42//42
f 37//37 43//43 38//38
f 38//38 44//44 39//39
f 44//44 38//38 43//43
f 45//45 39//39 44//44
f 46//46 42//42 41//41
f 42//42 46//46 43//43
f 47//47 43//43 46//46
f 43//43 47//47 44//44
f 44//44 48//48 45//45
f 48//48 44//44 47//47
f 41//41 49//49 46//46
f 50//50 45//45 48//48
f 2//2 51//51 52//52
f 2//2 1//1 5//5
f 4//4 1//1 53//53
f 54//54 55//55 3//3
f 8//8 7//7 56//56
f 57//57 58//58 59//59
f 60//60 57//57 59//59
f 52//52 61//61 62//62
f 63//63 17//17 8//8
f 22//22 17//17 63//63
f 60//60 64//64 65//65
f 64//64 60//60 59//59
f 66//66 65//65 64//64
f 65//65 66//66 63//63
f 67//67 63//63 66//66
f 63//63 67//67 22//22
f 24//24 22//22 67//67
f 64//64 68//68 66//66
f 68//68 64//64 69//69
f 66//66 70//70 67//67
f 70//70 66//66 68//68
f 71//71 28//28 24//24
f 67//67 71//71 24//24
f 71//71 67//67 70//70
f 32//32 28//28 71//71
f 72//72 70//70 68//68
f 70//70 72//72 71//71
f 71//71 73//73 32//32
f 73//73 71//71 72//72
f 34//34 32//32 73//73
f 74//74 69//69 75//75
f 69//69 74//74 68//68
f 76//76 68//68 74//74
f 68//68 76//76 72//72
f 72//72 77//77 73//73
f 77//77 72//72 76//76
f 78//78 73//73 77//77
f 78//78 35//35 34//34
f 73//73 78//78 34//34
f 40//40 35//35 78//78
f 76//76 79//79 77//77
f 79//79 76//76 74//74
f 80//80 77//77 79//79
f 77//77 80//80 78//78
f 81//81 78//78 80//80
f 78//78 81//81 40//40
f 41//41 40//40 81//81
f 74//74 82//82 79//79
f 82//82 74//74 75//75
f 83//83 79//79 82//82
f 79//79 83//83 80//80
f 84//84 80//80 83//83
f 80//80 84//84 81//81
f 81//81 85//85 41//41
f 85//85 81//81 84//84
f 49//49 41//41 85//85
f 86//86 84//84 83//83
f 84//84 86//86 85//85
f 85//85 87//87 49//49
f 87//87 85//85 86//86
f 3//3 55//55 53//53
f 11//11 10//10 55//55
f 88//88 55//55 10//10
f 55//55 88//88 53//53
f 53//53 89//89 4//4
f 89//89 53//53 88//88
f 4//4 90//90 6//6
f 90//90 4//4 89//89
f 10//10 21//21 88//88
f 88//88 91//91 89//89
f 91//91 88//88 21//21
f 89//89 92//92 90//90
f 92//92 89//89 91//91
f 90//90 93//93 6//6
f 93//93 90//90 92//92
f 21//21 27//27 91//91
f 94//94 91//91 27//27
f 91//91 94//94 92//92
f 92//92 95//95 93//93
f 95//95 92//92 94//94
f 94//94 96//96 95//95
f 94//94 27//27 33//33
f 96//96 94//94 33//33
f 95//95 97//97 93//93
f 97//97 95//95 96//96
f 98//98 93//93 97//97
f 93//93 98//98 6//6
f 99//99 6//6 98//98
f 96//96 100//100 97//97
f 96//96 33//33 39//39
f 100//100 96//96 39//39
f 97//97 101//101 98//98
f 101//101 97//97 100//100
f 100//100 102//102 101//101
f 102//102 100//100 39//39
f 101//101 103//103 98//98
f 103//103 101//101 102//102
f 104//104 98//98 103//103
f 98//98 104//104 99//99
f 39//39 45//45 102//102
f 105//105 102//102 45//45
f 102//102 105//105 103//103
f 103//103 106//106 104//104
f 106//106 103//103 105//105
f 107//107 104//104 106//106
f 104//104 107//107 99//99
f 45//45 50//50 105//105
f 53//53 1//1 3//3
f 108//108 109//109 54//54
f 49//49 110//110 46//46
f 52//52 3//3 2//2
f 46//46 111//111 47//47
f 111//111 46//46 110//110
f 112//112 47//47 111//111
f 112//112 48//48 47//47
f 113//113 48//48 112//112
f 113//113 114//114 50//50
f 113//113 50//50 48//48
f 62//62 54//54 52//52
f 110//110 115//115 111//111
f 116//116 114//114 113//113
f 111//111 117//117 112//112
f 117//117 111//111 115//115
f 112//112 118//118 113//113
f 118//118 112//112 117//117
f 113//113 119//119 116//116
f 119//119 113//113 118//118
f 115//115 120//120 117//117
f 121//121 117//117 120//120
f 117//117 121//121 118//118
f 118//118 122//122 119//119
f 122//122 118//118 121//121
f 123//123 119//119 122//122
f 123//123 124//124 116//116
f 119//119 123//123 116//116
f 120//120 125//125 121//121
f 121//121 126//126 122//122
f 121//121 125//125 127//127
f 126//126 121//121 127//127
f 128//128 122//122 126//126
f 122//122 128//128 123//123
f 123//123 129//129 124//124
f 129//129 123//123 128//128
f 130//130 124//124 129//129
f 127//127 131//131 126//126
f 131//131 132//132 126//126
f 133//133 130//130 129//129
f 126//126 134//134 128//128
f 128//128 135//135 129//129
f 135//135 128//128 134//134
f 129//129 136//136 133//133
f 136//136 129//129 135//135
f 137//137 138//138 134//134
f 139//139 134//134 138//138
f 134//134 139//139 135//135
f 135//135 140//140 136//136
f 140//140 135//135 139//139
f 141//141 136//136 140//140
f 141//141 142//142 133//133
f 136//136 141//141 133//133
f 138//138 143//143 139//139
f 139//139 143//143 144//144
f 145//145 139//139 144//144
f 139//139 145//145 140//140
f 140//140 146//146 141//141
f 146//146 140//140 145//145
f 141//141 147//147 142//142
f 147//147 141//141 146//146
f 108//108 142//142 147//147
f 145//145 148//148 146//146
f 148//148 145//145 144//144
f 146//146 149//149 147//147
f 149//149 146//146 148//148
f 147//147 150//150 108//108
f 150//150 147//147 149//149
f 144//144 151//151 148//148
f 109//109 108//108 150//150
f 148//148 151//151 7//7
f 148//148 7//7 9//9
f 54//54 62//62 108//108
f 148//148 9//9 149//149
f 149//149 14//14 150//150
f 149//149 9//9 14//14
f 150//150 12//12 109//109
f 3//3 52//52 54//54
f 12//12 150//150 14//14
f 11//11 109//109 12//12
f 75//75 152//152 82//82
f 153//153 82//82 152//152
f 82//82 153//153 83//83
f 154//154 86//86 83//83
f 154//154 83//83 153//153
f 155//155 86//86 154//154
f 155//155 87//87 86//86
f 156//156 110//110 49//49
f 156//156 49//49 87//87
f 156//156 87//87 155//155
f 115//115 110//110 156//156
f 157//157 153//153 152//152
f 153//153 157//157 154//154
f 154//154 158//158 155//155
f 158//158 154//154 157//157
f 155//155 159//159 156//156
f 159//159 155//155 158//158
f 160//160 156//156 159//159
f 156//156 160//160 115//115
f 158//158 161//161 159//159
f 161//161 158//158 157//157
f 159//159 162//162 160//160
f 162//162 159//159 161//161
f 163//163 160//160 162//162
f 125//125 120//120 163//163
f 162//162 164//164 163//163
f 163//163 165//165 125//125
f 165//165 163//163 164//164
f 127//127 125//125 165//165
f 164//164 166//166 165//165
f 166//166 164//164 167//167
f 168//168 165//165 166//166
f 168//168 131//131 127//127
f 165//165 168//168 127//127
f 132//132 131//131 168//168
f 152//152 169//169 170//170
f 169//169 152//152 75//75
f 171//171 170//170 169//169
f 170//170 171//171 167//167
f 167//167 172//172 166//166
f 172//172 167//167 171//171
f 166//166 173//173 168//168
f 173//173 166//166 172//172
f 174//174 168//168 173//173
f 168//168 174//174 132//132
f 137//137 132//132 174//174
f 175//175 171//171 169//169
f 171//171 175//175 172//172
f 172//172 176//176 173//173
f 176//176 172//172 175//175
f 173//173 177//177 174//174
f 177//177 173//173 176//176
f 178//178 174//174 177//177
f 178//178 138//138 137//137
f 174//174 178//178 137//137
f 143//143 138//138 178//178
f 179//179 176//176 175//175
f 176//176 179//179 177//177
f 180//180 177//177 179//179
f 177//177 180//180 178//178
f 181//181 178//178 180//180
f 178//178 181//181 143//143
f 144//144 143//143 181//181
f 182//182 175//175 169//169
f 175//175 182//182 179//179
f 179//179 183//183 180//180
f 183//183 179//179 182//182
f 184//184 180//180 183//183
f 180//180 184//184 181//181
f 181//181 185//185 144//144
f 185//185 181//181 184//184
f 151//151 144//144 185//185
f 169//169 75//75 59//59
f 183//183 58//58 184//184
f 184//184 56//56 185//185
f 185//185 56//56 151//151
f 7//7 151//151 56//56
f 50//50 114//114 105//105
f 186//186 106//106 105//105
f 186//186 105//105 114//114
f 51//51 2//2 5//5
f 106//106 187//187 107//107
f 187//187 106//106 186//186
f 188//188 107//107 187//187
f 142//142 108//108 62//62
f 189//189 99//99 188//188
f 114//114 116//116 186//186
f 190//190 186//186 116//116
f 186//186 190//190 187//187
f 187//187 191//191 188//188
f 191//191 187//187 190//190
f 192//192 188//188 191//191
f 188//188 192//192 189//189
f 116//116 124//124 190//190
f 193//193 190//190 124//124
f 190//190 193//193 191//191
f 194//194 191//191 193//193
f 191//191 194//194 192//192
f 192//192 195//195 189//189
f 195//195 192//192 194//194
f 124//124 130//130 193//193
f 193//193 196//196 194//194
f 196//196 193//193 130//130
f 194//194 197//197 195//195
f 197//197 194//194 196//196
f 196//196 130//130 133//133
f 198//198 196//196 133//133
f 196//196 198//198 197//197
f 199//199 197//197 198//198
f 197//197 199//199 195//195
f 51//51 195//195 199//199
f 195//195 51//51 189//189
f 5//5 189//189 51//51
f 189//189 5//5 99//99
f 198//198 200//200 199//199
f 61//61 199//199 200//200
f 199//199 61//61 51//51
f 62//62 200//200 142//142
f 200//200 62//62 61//61
f 61//61 52//52 51//51
f 11//11 55//55 109//109
f 54//54 109//109 55//55
f 133//133 200//200 198//198
f 133//133 142//142 200//200
f 120//120 160//160 163//163
f 115//115 160//160 120//120
f 157//157 201//201 161//161
f 170//170 201//201 152//152
f 201//201 157//157 152//152
f 167//167 164//164 202//202
f 170//170 167//167 202//202
f 162//162 202//202 164//164
f 161//161 202//202 162//162
f 170//170 202//202 201//201
f 161//161 201//201 202//202
f 65//65 203//203 60//60
f 56//56 204//204 8//8
f 204//204 63//63 8//8
f 63//63 204//204 203//203
f 63//63 203//203 65//65
f 58//58 205//205 184//184
f 205//205 56//56 184//184
f 58//58 203//203 205//205
f 58//58 57//57 203//203
f 57//57 60//60 203//203
f 56//56 203//203 204//204
f 56//56 205//205 203//203
f 59//59 206//206 64//64
f 206//206 69//69 64//64
f 69//69 206//206 75//75
f 206//206 59//59 75//75
f 59//59 207//207 169//169
f 207//207 182//182 169//169
f 182//182 207//207 183//183
f 183//183 207//207 58//58
f 207//207 59//59 58//58
f 132//132 137//137 134//134
f 126//126 132//132 134//134
f 5//5 6//6 99//99
f 99//99 107//107 188//188
f 208//208 209//209 210//210
f 208//208 210//210 211//211
f 212//212 213//213 214//214
f 212//212 214//214 215//215
f 208//208 212//212 215//215
f 208//208 215//215 209//209
f 209//209 215//215 214//214
f 209//209 214//214 210//210
f 210//210 214//214 213//213
f 210//210 213//213 211//211
f 212//212 208//208 211//211
f 212//212 211//211 213//213
# 422 faces, 0 coords texture

# End of File
